<?xml version="1.0" encoding="UTF-8" standalone="no"?><svg xmlns="http://www.w3.org/2000/svg" xmlns:xlink="http://www.w3.org/1999/xlink" contentStyleType="text/css" height="1069px" preserveAspectRatio="none" style="width:771px;height:1069px;background:#FFFFFF;" version="1.1" viewBox="0 0 771 1069" width="771px" zoomAndPan="magnify"><defs/><g><line style="stroke:none;stroke-width:1.5;" x1="55" x2="725.5" y1="10" y2="10"/><rect fill="#F1F1F1" height="33.9688" rx="12.5" ry="12.5" style="stroke:#181818;stroke-width:0.5;" width="71" x="19.5" y="31.5"/><text fill="#000000" font-family="sans-serif" font-size="12" lengthAdjust="spacing" textLength="51" x="29.5" y="52.6387">wait1ms</text><rect fill="#F1F1F1" height="33.9688" rx="12.5" ry="12.5" style="stroke:#181818;stroke-width:0.5;" width="88" x="11" y="85.4688"/><text fill="#000000" font-family="sans-serif" font-size="12" lengthAdjust="spacing" textLength="68" x="21" y="106.6074">Temp3 = 0</text><rect fill="#F1F1F1" height="33.9688" rx="12.5" ry="12.5" style="stroke:#181818;stroke-width:0.5;" width="88" x="11" y="139.4375"/><text fill="#000000" font-family="sans-serif" font-size="12" lengthAdjust="spacing" textLength="68" x="21" y="160.5762">Temp2 = 1</text><rect fill="#F1F1F1" height="33.9688" rx="12.5" ry="12.5" style="stroke:#181818;stroke-width:0.5;" width="71" x="117.5" y="31.5"/><text fill="#000000" font-family="sans-serif" font-size="12" lengthAdjust="spacing" textLength="51" x="127.5" y="52.6387">wait5ms</text><rect fill="#F1F1F1" height="33.9688" rx="12.5" ry="12.5" style="stroke:#181818;stroke-width:0.5;" width="88" x="109" y="85.4688"/><text fill="#000000" font-family="sans-serif" font-size="12" lengthAdjust="spacing" textLength="68" x="119" y="106.6074">Temp3 = 0</text><rect fill="#F1F1F1" height="33.9688" rx="12.5" ry="12.5" style="stroke:#181818;stroke-width:0.5;" width="88" x="109" y="139.4375"/><text fill="#000000" font-family="sans-serif" font-size="12" lengthAdjust="spacing" textLength="68" x="119" y="160.5762">Temp2 = 5</text><rect fill="#F1F1F1" height="33.9688" rx="12.5" ry="12.5" style="stroke:#181818;stroke-width:0.5;" width="79" x="215.5" y="31.5"/><text fill="#000000" font-family="sans-serif" font-size="12" lengthAdjust="spacing" textLength="59" x="225.5" y="52.6387">wait10ms</text><rect fill="#F1F1F1" height="33.9688" rx="12.5" ry="12.5" style="stroke:#181818;stroke-width:0.5;" width="88" x="211" y="85.4688"/><text fill="#000000" font-family="sans-serif" font-size="12" lengthAdjust="spacing" textLength="68" x="221" y="106.6074">Temp3 = 0</text><rect fill="#F1F1F1" height="33.9688" rx="12.5" ry="12.5" style="stroke:#181818;stroke-width:0.5;" width="96" x="207" y="139.4375"/><text fill="#000000" font-family="sans-serif" font-size="12" lengthAdjust="spacing" textLength="76" x="217" y="160.5762">Temp2 = 10</text><rect fill="#F1F1F1" height="33.9688" rx="12.5" ry="12.5" style="stroke:#181818;stroke-width:0.5;" width="87" x="339.5" y="31.5"/><text fill="#000000" font-family="sans-serif" font-size="12" lengthAdjust="spacing" textLength="67" x="349.5" y="52.6387">wait100ms</text><rect fill="#F1F1F1" height="33.9688" rx="12.5" ry="12.5" style="stroke:#181818;stroke-width:0.5;" width="88" x="339" y="85.4688"/><text fill="#000000" font-family="sans-serif" font-size="12" lengthAdjust="spacing" textLength="68" x="349" y="106.6074">Temp3 = 0</text><rect fill="#F1F1F1" height="33.9688" rx="12.5" ry="12.5" style="stroke:#181818;stroke-width:0.5;" width="104" x="331" y="139.4375"/><text fill="#000000" font-family="sans-serif" font-size="12" lengthAdjust="spacing" textLength="84" x="341" y="160.5762">Temp2 = 100</text><rect fill="#F1F1F1" height="33.9688" rx="12.5" ry="12.5" style="stroke:#181818;stroke-width:0.5;" width="87" x="471.5" y="31.5"/><text fill="#000000" font-family="sans-serif" font-size="12" lengthAdjust="spacing" textLength="67" x="481.5" y="52.6387">wait200ms</text><rect fill="#F1F1F1" height="33.9688" rx="12.5" ry="12.5" style="stroke:#181818;stroke-width:0.5;" width="88" x="471" y="85.4688"/><text fill="#000000" font-family="sans-serif" font-size="12" lengthAdjust="spacing" textLength="68" x="481" y="106.6074">Temp3 = 0</text><rect fill="#F1F1F1" height="33.9688" rx="12.5" ry="12.5" style="stroke:#181818;stroke-width:0.5;" width="104" x="463" y="139.4375"/><text fill="#000000" font-family="sans-serif" font-size="12" lengthAdjust="spacing" textLength="84" x="473" y="160.5762">Temp2 = 200</text><rect fill="#F1F1F1" height="33.9688" rx="12.5" ry="12.5" style="stroke:#181818;stroke-width:0.5;" width="87" x="585.5" y="31.5"/><text fill="#000000" font-family="sans-serif" font-size="12" lengthAdjust="spacing" textLength="67" x="595.5" y="52.6387">wait250ms</text><rect fill="#F1F1F1" height="33.9688" rx="12.5" ry="12.5" style="stroke:#181818;stroke-width:0.5;" width="88" x="585" y="85.4688"/><text fill="#000000" font-family="sans-serif" font-size="12" lengthAdjust="spacing" textLength="68" x="595" y="106.6074">Temp3 = 0</text><rect fill="#F1F1F1" height="33.9688" rx="12.5" ry="12.5" style="stroke:#181818;stroke-width:0.5;" width="104" x="577" y="139.4375"/><text fill="#000000" font-family="sans-serif" font-size="12" lengthAdjust="spacing" textLength="84" x="587" y="160.5762">Temp2 = 250</text><rect fill="#F1F1F1" height="33.9688" rx="12.5" ry="12.5" style="stroke:#181818;stroke-width:0.5;" width="69" x="691" y="85.4688"/><text fill="#000000" font-family="sans-serif" font-size="12" lengthAdjust="spacing" textLength="49" x="701" y="106.6074">wait_ms</text><line style="stroke:#181818;stroke-width:1.5;" x1="55" x2="725.5" y1="193.4063" y2="193.4063"/><rect fill="#F1F1F1" height="33.9688" rx="12.5" ry="12.5" style="stroke:#181818;stroke-width:0.5;" width="148" x="311.5" y="234.8052"/><text fill="#000000" font-family="sans-serif" font-size="12" lengthAdjust="spacing" textLength="128" x="321.5" y="255.9438">Temp2 = Temp2 + 1</text><rect fill="#F1F1F1" height="33.9688" rx="12.5" ry="12.5" style="stroke:#181818;stroke-width:0.5;" width="148" x="311.5" y="288.7739"/><text fill="#000000" font-family="sans-serif" font-size="12" lengthAdjust="spacing" textLength="128" x="321.5" y="309.9126">Temp3 = Temp3 + 1</text><rect fill="#F1F1F1" height="33.9688" rx="12.5" ry="12.5" style="stroke:#181818;stroke-width:0.5;" width="96" x="337.5" y="454.1636"/><text fill="#000000" font-family="sans-serif" font-size="12" lengthAdjust="spacing" textLength="76" x="347.5" y="475.3022">Temp1 = 24</text><rect fill="#F1F1F1" height="33.9688" rx="12.5" ry="12.5" style="stroke:#181818;stroke-width:0.5;" width="70" x="350.5" y="563.8428"/><text fill="#000000" font-family="sans-serif" font-size="12" lengthAdjust="spacing" textLength="50" x="360.5" y="584.9814">A = 255</text><rect fill="#F1F1F1" height="33.9688" rx="12.5" ry="12.5" style="stroke:#181818;stroke-width:0.5;" width="74" x="348.5" y="678.6162"/><text fill="#000000" font-family="sans-serif" font-size="12" lengthAdjust="spacing" textLength="54" x="358.5" y="699.7549">A = A - 1</text><polygon fill="#F1F1F1" points="368.5,617.8115,402.5,617.8115,414.5,629.8115,402.5,641.8115,368.5,641.8115,356.5,629.8115,368.5,617.8115" style="stroke:#181818;stroke-width:0.5;"/><text fill="#000000" font-family="sans-serif" font-size="11" lengthAdjust="spacing" textLength="20" x="389.5" y="652.022">yes</text><text fill="#000000" font-family="sans-serif" font-size="11" lengthAdjust="spacing" textLength="34" x="368.5" y="633.6196">A != 0</text><rect fill="#F1F1F1" height="33.9688" rx="12.5" ry="12.5" style="stroke:#181818;stroke-width:0.5;" width="142" x="314.5" y="754.585"/><text fill="#000000" font-family="sans-serif" font-size="12" lengthAdjust="spacing" textLength="122" x="324.5" y="775.7236">Temp1 = Temp1 - 1</text><polygon fill="#F1F1F1" points="352.5,508.1323,418.5,508.1323,430.5,520.1323,418.5,532.1323,352.5,532.1323,340.5,520.1323,352.5,508.1323" style="stroke:#181818;stroke-width:0.5;"/><text fill="#000000" font-family="sans-serif" font-size="11" lengthAdjust="spacing" textLength="20" x="389.5" y="542.3428">yes</text><text fill="#000000" font-family="sans-serif" font-size="11" lengthAdjust="spacing" textLength="66" x="352.5" y="523.9404">Temp1 != 0</text><rect fill="#F1F1F1" height="33.9688" rx="12.5" ry="12.5" style="stroke:#181818;stroke-width:0.5;" width="142" x="314.5" y="830.5537"/><text fill="#000000" font-family="sans-serif" font-size="12" lengthAdjust="spacing" textLength="122" x="324.5" y="851.6924">Temp2 = Temp2 - 1</text><polygon fill="#F1F1F1" points="352.5,398.4531,418.5,398.4531,430.5,410.4531,418.5,422.4531,352.5,422.4531,340.5,410.4531,352.5,398.4531" style="stroke:#181818;stroke-width:0.5;"/><text fill="#000000" font-family="sans-serif" font-size="11" lengthAdjust="spacing" textLength="20" x="389.5" y="432.6636">yes</text><text fill="#000000" font-family="sans-serif" font-size="11" lengthAdjust="spacing" textLength="66" x="352.5" y="414.2612">Temp2 != 0</text><rect fill="#F1F1F1" height="33.9688" rx="12.5" ry="12.5" style="stroke:#181818;stroke-width:0.5;" width="142" x="314.5" y="906.5225"/><text fill="#000000" font-family="sans-serif" font-size="12" lengthAdjust="spacing" textLength="122" x="324.5" y="927.6611">Temp3 = Temp3 - 1</text><polygon fill="#F1F1F1" points="352.5,342.7427,418.5,342.7427,430.5,354.7427,418.5,366.7427,352.5,366.7427,340.5,354.7427,352.5,342.7427" style="stroke:#181818;stroke-width:0.5;"/><text fill="#000000" font-family="sans-serif" font-size="11" lengthAdjust="spacing" textLength="20" x="389.5" y="376.9531">yes</text><text fill="#000000" font-family="sans-serif" font-size="11" lengthAdjust="spacing" textLength="66" x="352.5" y="358.5508">Temp3 != 0</text><rect fill="#F1F1F1" height="33.9688" rx="12.5" ry="12.5" style="stroke:#181818;stroke-width:0.5;" width="38" x="366.5" y="982.4912"/><text fill="#000000" font-family="sans-serif" font-size="12" lengthAdjust="spacing" textLength="18" x="376.5" y="1003.6299">ret</text><ellipse cx="385.5" cy="1047.46" rx="11" ry="11" style="stroke:#222222;stroke-width:1.0;fill:none;"/><ellipse cx="385.5" cy="1047.46" fill="#222222" rx="6" ry="6" style="stroke:#111111;stroke-width:1.0;"/><line style="stroke:#181818;stroke-width:1.0;" x1="55" x2="55" y1="65.4688" y2="85.4688"/><polygon fill="#181818" points="51,75.4688,55,85.4688,59,75.4688,55,79.4688" style="stroke:#181818;stroke-width:1.0;"/><line style="stroke:#181818;stroke-width:1.0;" x1="55" x2="55" y1="119.4375" y2="139.4375"/><polygon fill="#181818" points="51,129.4375,55,139.4375,59,129.4375,55,133.4375" style="stroke:#181818;stroke-width:1.0;"/><line style="stroke:#181818;stroke-width:1.0;" x1="153" x2="153" y1="65.4688" y2="85.4688"/><polygon fill="#181818" points="149,75.4688,153,85.4688,157,75.4688,153,79.4688" style="stroke:#181818;stroke-width:1.0;"/><line style="stroke:#181818;stroke-width:1.0;" x1="153" x2="153" y1="119.4375" y2="139.4375"/><polygon fill="#181818" points="149,129.4375,153,139.4375,157,129.4375,153,133.4375" style="stroke:#181818;stroke-width:1.0;"/><line style="stroke:#181818;stroke-width:1.0;" x1="255" x2="255" y1="65.4688" y2="85.4688"/><polygon fill="#181818" points="251,75.4688,255,85.4688,259,75.4688,255,79.4688" style="stroke:#181818;stroke-width:1.0;"/><line style="stroke:#181818;stroke-width:1.0;" x1="255" x2="255" y1="119.4375" y2="139.4375"/><polygon fill="#181818" points="251,129.4375,255,139.4375,259,129.4375,255,133.4375" style="stroke:#181818;stroke-width:1.0;"/><line style="stroke:#181818;stroke-width:1.0;" x1="383" x2="383" y1="65.4688" y2="85.4688"/><polygon fill="#181818" points="379,75.4688,383,85.4688,387,75.4688,383,79.4688" style="stroke:#181818;stroke-width:1.0;"/><line style="stroke:#181818;stroke-width:1.0;" x1="383" x2="383" y1="119.4375" y2="139.4375"/><polygon fill="#181818" points="379,129.4375,383,139.4375,387,129.4375,383,133.4375" style="stroke:#181818;stroke-width:1.0;"/><line style="stroke:#181818;stroke-width:1.0;" x1="515" x2="515" y1="65.4688" y2="85.4688"/><polygon fill="#181818" points="511,75.4688,515,85.4688,519,75.4688,515,79.4688" style="stroke:#181818;stroke-width:1.0;"/><line style="stroke:#181818;stroke-width:1.0;" x1="515" x2="515" y1="119.4375" y2="139.4375"/><polygon fill="#181818" points="511,129.4375,515,139.4375,519,129.4375,515,133.4375" style="stroke:#181818;stroke-width:1.0;"/><line style="stroke:#181818;stroke-width:1.0;" x1="629" x2="629" y1="65.4688" y2="85.4688"/><polygon fill="#181818" points="625,75.4688,629,85.4688,633,75.4688,629,79.4688" style="stroke:#181818;stroke-width:1.0;"/><line style="stroke:#181818;stroke-width:1.0;" x1="629" x2="629" y1="119.4375" y2="139.4375"/><polygon fill="#181818" points="625,129.4375,629,139.4375,633,129.4375,629,133.4375" style="stroke:#181818;stroke-width:1.0;"/><line style="stroke:#181818;stroke-width:1.0;" x1="55" x2="55" y1="173.4063" y2="193.4063"/><polygon fill="#181818" points="51,183.4063,55,193.4063,59,183.4063,55,187.4063" style="stroke:#181818;stroke-width:1.0;"/><line style="stroke:#181818;stroke-width:1.0;" x1="153" x2="153" y1="173.4063" y2="193.4063"/><polygon fill="#181818" points="149,183.4063,153,193.4063,157,183.4063,153,187.4063" style="stroke:#181818;stroke-width:1.0;"/><line style="stroke:#181818;stroke-width:1.0;" x1="255" x2="255" y1="173.4063" y2="193.4063"/><polygon fill="#181818" points="251,183.4063,255,193.4063,259,183.4063,255,187.4063" style="stroke:#181818;stroke-width:1.0;"/><line style="stroke:#181818;stroke-width:1.0;" x1="383" x2="383" y1="173.4063" y2="193.4063"/><polygon fill="#181818" points="379,183.4063,383,193.4063,387,183.4063,383,187.4063" style="stroke:#181818;stroke-width:1.0;"/><line style="stroke:#181818;stroke-width:1.0;" x1="515" x2="515" y1="173.4063" y2="193.4063"/><polygon fill="#181818" points="511,183.4063,515,193.4063,519,183.4063,515,187.4063" style="stroke:#181818;stroke-width:1.0;"/><line style="stroke:#181818;stroke-width:1.0;" x1="629" x2="629" y1="173.4063" y2="193.4063"/><polygon fill="#181818" points="625,183.4063,629,193.4063,633,183.4063,629,187.4063" style="stroke:#181818;stroke-width:1.0;"/><line style="stroke:#181818;stroke-width:1.0;" x1="725.5" x2="725.5" y1="119.4375" y2="193.4063"/><polygon fill="#181818" points="721.5,183.4063,725.5,193.4063,729.5,183.4063,725.5,187.4063" style="stroke:#181818;stroke-width:1.0;"/><line style="stroke:#181818;stroke-width:1.0;" x1="385.5" x2="385.5" y1="194.9063" y2="234.8052"/><polygon fill="#181818" points="381.5,224.8052,385.5,234.8052,389.5,224.8052,385.5,228.8052" style="stroke:#181818;stroke-width:1.0;"/><text fill="#000000" font-family="sans-serif" font-size="11" lengthAdjust="spacing" textLength="155" x="389.5" y="214.7109">Increment for use with djnz</text><line style="stroke:#181818;stroke-width:1.0;" x1="385.5" x2="385.5" y1="268.7739" y2="288.7739"/><polygon fill="#181818" points="381.5,278.7739,385.5,288.7739,389.5,278.7739,385.5,282.7739" style="stroke:#181818;stroke-width:1.0;"/><line style="stroke:#181818;stroke-width:1.0;" x1="385.5" x2="385.5" y1="641.8115" y2="678.6162"/><polygon fill="#181818" points="381.5,668.6162,385.5,678.6162,389.5,668.6162,385.5,672.6162" style="stroke:#181818;stroke-width:1.0;"/><line style="stroke:#181818;stroke-width:1.0;" x1="385.5" x2="385.5" y1="712.585" y2="722.585"/><line style="stroke:#181818;stroke-width:1.0;" x1="385.5" x2="434.5" y1="722.585" y2="722.585"/><polygon fill="#181818" points="430.5,687.1982,434.5,677.1982,438.5,687.1982,434.5,683.1982" style="stroke:#181818;stroke-width:1.0;"/><line style="stroke:#181818;stroke-width:1.0;" x1="434.5" x2="434.5" y1="629.8115" y2="722.585"/><line style="stroke:#181818;stroke-width:1.0;" x1="434.5" x2="414.5" y1="629.8115" y2="629.8115"/><polygon fill="#181818" points="424.5,625.8115,414.5,629.8115,424.5,633.8115,420.5,629.8115" style="stroke:#181818;stroke-width:1.0;"/><line style="stroke:#181818;stroke-width:1.0;" x1="356.5" x2="336.5" y1="629.8115" y2="629.8115"/><polygon fill="#181818" points="332.5,673.1982,336.5,683.1982,340.5,673.1982,336.5,677.1982" style="stroke:#181818;stroke-width:1.0;"/><line style="stroke:#181818;stroke-width:1.0;" x1="336.5" x2="336.5" y1="629.8115" y2="734.585"/><line style="stroke:#181818;stroke-width:1.0;" x1="336.5" x2="385.5" y1="734.585" y2="734.585"/><line style="stroke:#181818;stroke-width:1.0;" x1="385.5" x2="385.5" y1="734.585" y2="754.585"/><polygon fill="#181818" points="381.5,744.585,385.5,754.585,389.5,744.585,385.5,748.585" style="stroke:#181818;stroke-width:1.0;"/><line style="stroke:#181818;stroke-width:1.0;" x1="385.5" x2="385.5" y1="597.8115" y2="617.8115"/><polygon fill="#181818" points="381.5,607.8115,385.5,617.8115,389.5,607.8115,385.5,611.8115" style="stroke:#181818;stroke-width:1.0;"/><line style="stroke:#181818;stroke-width:1.0;" x1="385.5" x2="385.5" y1="532.1323" y2="563.8428"/><polygon fill="#181818" points="381.5,553.8428,385.5,563.8428,389.5,553.8428,385.5,557.8428" style="stroke:#181818;stroke-width:1.0;"/><line style="stroke:#181818;stroke-width:1.0;" x1="385.5" x2="385.5" y1="788.5537" y2="798.5537"/><line style="stroke:#181818;stroke-width:1.0;" x1="385.5" x2="468.5" y1="798.5537" y2="798.5537"/><polygon fill="#181818" points="464.5,668.7959,468.5,658.7959,472.5,668.7959,468.5,664.7959" style="stroke:#181818;stroke-width:1.0;"/><line style="stroke:#181818;stroke-width:1.0;" x1="468.5" x2="468.5" y1="520.1323" y2="798.5537"/><line style="stroke:#181818;stroke-width:1.0;" x1="468.5" x2="430.5" y1="520.1323" y2="520.1323"/><polygon fill="#181818" points="440.5,516.1323,430.5,520.1323,440.5,524.1323,436.5,520.1323" style="stroke:#181818;stroke-width:1.0;"/><line style="stroke:#181818;stroke-width:1.0;" x1="340.5" x2="302.5" y1="520.1323" y2="520.1323"/><polygon fill="#181818" points="298.5,654.7959,302.5,664.7959,306.5,654.7959,302.5,658.7959" style="stroke:#181818;stroke-width:1.0;"/><line style="stroke:#181818;stroke-width:1.0;" x1="302.5" x2="302.5" y1="520.1323" y2="810.5537"/><line style="stroke:#181818;stroke-width:1.0;" x1="302.5" x2="385.5" y1="810.5537" y2="810.5537"/><line style="stroke:#181818;stroke-width:1.0;" x1="385.5" x2="385.5" y1="810.5537" y2="830.5537"/><polygon fill="#181818" points="381.5,820.5537,385.5,830.5537,389.5,820.5537,385.5,824.5537" style="stroke:#181818;stroke-width:1.0;"/><line style="stroke:#181818;stroke-width:1.0;" x1="385.5" x2="385.5" y1="488.1323" y2="508.1323"/><polygon fill="#181818" points="381.5,498.1323,385.5,508.1323,389.5,498.1323,385.5,502.1323" style="stroke:#181818;stroke-width:1.0;"/><line style="stroke:#181818;stroke-width:1.0;" x1="385.5" x2="385.5" y1="422.4531" y2="454.1636"/><polygon fill="#181818" points="381.5,444.1636,385.5,454.1636,389.5,444.1636,385.5,448.1636" style="stroke:#181818;stroke-width:1.0;"/><line style="stroke:#181818;stroke-width:1.0;" x1="385.5" x2="385.5" y1="864.5225" y2="874.5225"/><line style="stroke:#181818;stroke-width:1.0;" x1="385.5" x2="480.5" y1="874.5225" y2="874.5225"/><polygon fill="#181818" points="476.5,650.3936,480.5,640.3936,484.5,650.3936,480.5,646.3936" style="stroke:#181818;stroke-width:1.0;"/><line style="stroke:#181818;stroke-width:1.0;" x1="480.5" x2="480.5" y1="410.4531" y2="874.5225"/><line style="stroke:#181818;stroke-width:1.0;" x1="480.5" x2="430.5" y1="410.4531" y2="410.4531"/><polygon fill="#181818" points="440.5,406.4531,430.5,410.4531,440.5,414.4531,436.5,410.4531" style="stroke:#181818;stroke-width:1.0;"/><line style="stroke:#181818;stroke-width:1.0;" x1="340.5" x2="278.5" y1="410.4531" y2="410.4531"/><polygon fill="#181818" points="274.5,636.3936,278.5,646.3936,282.5,636.3936,278.5,640.3936" style="stroke:#181818;stroke-width:1.0;"/><line style="stroke:#181818;stroke-width:1.0;" x1="278.5" x2="278.5" y1="410.4531" y2="886.5225"/><line style="stroke:#181818;stroke-width:1.0;" x1="278.5" x2="385.5" y1="886.5225" y2="886.5225"/><line style="stroke:#181818;stroke-width:1.0;" x1="385.5" x2="385.5" y1="886.5225" y2="906.5225"/><polygon fill="#181818" points="381.5,896.5225,385.5,906.5225,389.5,896.5225,385.5,900.5225" style="stroke:#181818;stroke-width:1.0;"/><line style="stroke:#181818;stroke-width:1.0;" x1="385.5" x2="385.5" y1="366.7427" y2="398.4531"/><polygon fill="#181818" points="381.5,388.4531,385.5,398.4531,389.5,388.4531,385.5,392.4531" style="stroke:#181818;stroke-width:1.0;"/><line style="stroke:#181818;stroke-width:1.0;" x1="385.5" x2="385.5" y1="940.4912" y2="950.4912"/><line style="stroke:#181818;stroke-width:1.0;" x1="385.5" x2="492.5" y1="950.4912" y2="950.4912"/><polygon fill="#181818" points="488.5,666.4756,492.5,656.4756,496.5,666.4756,492.5,662.4756" style="stroke:#181818;stroke-width:1.0;"/><line style="stroke:#181818;stroke-width:1.0;" x1="492.5" x2="492.5" y1="354.7427" y2="950.4912"/><line style="stroke:#181818;stroke-width:1.0;" x1="492.5" x2="430.5" y1="354.7427" y2="354.7427"/><polygon fill="#181818" points="440.5,350.7427,430.5,354.7427,440.5,358.7427,436.5,354.7427" style="stroke:#181818;stroke-width:1.0;"/><line style="stroke:#181818;stroke-width:1.0;" x1="340.5" x2="254.5" y1="354.7427" y2="354.7427"/><polygon fill="#181818" points="250.5,652.4756,254.5,662.4756,258.5,652.4756,254.5,656.4756" style="stroke:#181818;stroke-width:1.0;"/><line style="stroke:#181818;stroke-width:1.0;" x1="254.5" x2="254.5" y1="354.7427" y2="962.4912"/><line style="stroke:#181818;stroke-width:1.0;" x1="254.5" x2="385.5" y1="962.4912" y2="962.4912"/><line style="stroke:#181818;stroke-width:1.0;" x1="385.5" x2="385.5" y1="962.4912" y2="982.4912"/><polygon fill="#181818" points="381.5,972.4912,385.5,982.4912,389.5,972.4912,385.5,976.4912" style="stroke:#181818;stroke-width:1.0;"/><line style="stroke:#181818;stroke-width:1.0;" x1="385.5" x2="385.5" y1="322.7427" y2="342.7427"/><polygon fill="#181818" points="381.5,332.7427,385.5,342.7427,389.5,332.7427,385.5,336.7427" style="stroke:#181818;stroke-width:1.0;"/><line style="stroke:#181818;stroke-width:1.0;" x1="385.5" x2="385.5" y1="1016.46" y2="1036.46"/><polygon fill="#181818" points="381.5,1026.46,385.5,1036.46,389.5,1026.46,385.5,1030.46" style="stroke:#181818;stroke-width:1.0;"/><!--MD5=[6dd473e3902de0b04c30cbe50f683232]
@startuml 
split
  -[hidden]->
  :wait1ms;
  :Temp3 = 0;
  :Temp2 = 1;
split again
  -[hidden]->
  :wait5ms;
  :Temp3 = 0;
  :Temp2 = 5;
split again
  -[hidden]->
  :wait10ms;
  :Temp3 = 0;
  :Temp2 = 10;
split again
  -[hidden]->
  :wait100ms;
  :Temp3 = 0;
  :Temp2 = 100;
split again
  -[hidden]->
  :wait200ms;
  :Temp3 = 0;
  :Temp2 = 200;
split again
  -[hidden]->
  :wait250ms;
  :Temp3 = 0;
  :Temp2 = 250;
split again
  -[hidden]->
  :wait_ms;
end split
->Increment for use with djnz;
:Temp2 = Temp2 + 1;
:Temp3 = Temp3 + 1;
while (Temp3 != 0)
  ->yes;
  while (Temp2 != 0)
    ->yes;
    :Temp1 = 24;
    while (Temp1 != 0)
      ->yes;
      :A = 255;
      while (A != 0)
        ->yes;
        :A = A - 1;
      endwhile
      :Temp1 = Temp1 - 1;
    endwhile
    :Temp2 = Temp2 - 1;
  endwhile
  :Temp3 = Temp3 - 1;
endwhile
:ret;
stop
@enduml

PlantUML version 1.2022.6(Tue Jun 21 17:34:49 UTC 2022)
(GPL source distribution)
Java Runtime: OpenJDK Runtime Environment
JVM: OpenJDK 64-Bit Server VM
Default Encoding: UTF-8
Language: en
Country: null
--></g></svg>