<?xml version="1.0" encoding="UTF-8" standalone="no"?><svg xmlns="http://www.w3.org/2000/svg" xmlns:xlink="http://www.w3.org/1999/xlink" contentStyleType="text/css" height="1563px" preserveAspectRatio="none" style="width:219px;height:1563px;background:#FFFFFF;" version="1.1" viewBox="0 0 219 1563" width="219px" zoomAndPan="magnify"><defs/><g><ellipse cx="109.5" cy="20" fill="#222222" rx="10" ry="10" style="stroke:#222222;stroke-width:1.0;"/><rect fill="#F1F1F1" height="33.9688" rx="12.5" ry="12.5" style="stroke:#181818;stroke-width:0.5;" width="197" x="11" y="50"/><text fill="#000000" font-family="sans-serif" font-size="12" lengthAdjust="spacing" textLength="177" x="21" y="71.1387">Temp1 = &amp;Pgm_LED_Control</text><rect fill="#F1F1F1" height="33.9688" rx="12.5" ry="12.5" style="stroke:#181818;stroke-width:0.5;" width="94" x="62.5" y="103.9688"/><text fill="#000000" font-family="sans-serif" font-size="12" lengthAdjust="spacing" textLength="74" x="72.5" y="125.1074">A = *Temp1</text><rect fill="#F1F1F1" height="33.9688" rx="12.5" ry="12.5" style="stroke:#181818;stroke-width:0.5;" width="88" x="65.5" y="157.9375"/><text fill="#000000" font-family="sans-serif" font-size="12" lengthAdjust="spacing" textLength="68" x="75.5" y="179.0762">Temp2 = A</text><rect fill="#F1F1F1" height="33.9688" rx="12.5" ry="12.5" style="stroke:#181818;stroke-width:0.5;" width="102" x="58.5" y="233.3052"/><text fill="#000000" font-family="sans-serif" font-size="12" lengthAdjust="spacing" textLength="82" x="68.5" y="254.4438">A = A &amp; 0x03</text><rect fill="#F1F1F1" height="33.9688" rx="12.5" ry="12.5" style="stroke:#181818;stroke-width:0.5;" width="94" x="62.5" y="287.2739"/><text fill="#000000" font-family="sans-serif" font-size="12" lengthAdjust="spacing" textLength="74" x="72.5" y="308.4126">Set_LED_0()</text><rect fill="#F1F1F1" height="33.9688" rx="12.5" ry="12.5" style="stroke:#181818;stroke-width:0.5;" width="105" x="57" y="389.645"/><text fill="#000000" font-family="sans-serif" font-size="12" lengthAdjust="spacing" textLength="85" x="67" y="410.7837">Clear_LED_0()</text><polygon fill="#F1F1F1" points="89.5,341.2427,129.5,341.2427,141.5,353.2427,129.5,365.2427,89.5,365.2427,77.5,353.2427,89.5,341.2427" style="stroke:#181818;stroke-width:0.5;"/><text fill="#000000" font-family="sans-serif" font-size="11" lengthAdjust="spacing" textLength="20" x="113.5" y="375.4531">yes</text><text fill="#000000" font-family="sans-serif" font-size="11" lengthAdjust="spacing" textLength="40" x="89.5" y="357.0508">A == 0</text><polygon fill="#F1F1F1" points="109.5,443.6138,121.5,455.6138,109.5,467.6138,97.5,455.6138,109.5,443.6138" style="stroke:#181818;stroke-width:0.5;"/><rect fill="#F1F1F1" height="33.9688" rx="12.5" ry="12.5" style="stroke:#181818;stroke-width:0.5;" width="88" x="65.5" y="509.0127"/><text fill="#000000" font-family="sans-serif" font-size="12" lengthAdjust="spacing" textLength="68" x="75.5" y="530.1514">A = Temp2</text><rect fill="#F1F1F1" height="33.9688" rx="12.5" ry="12.5" style="stroke:#181818;stroke-width:0.5;" width="102" x="58.5" y="562.9814"/><text fill="#000000" font-family="sans-serif" font-size="12" lengthAdjust="spacing" textLength="82" x="68.5" y="584.1201">A = A &amp; 0x0C</text><rect fill="#F1F1F1" height="33.9688" rx="12.5" ry="12.5" style="stroke:#181818;stroke-width:0.5;" width="94" x="62.5" y="616.9502"/><text fill="#000000" font-family="sans-serif" font-size="12" lengthAdjust="spacing" textLength="74" x="72.5" y="638.0889">Set_LED_1()</text><rect fill="#F1F1F1" height="33.9688" rx="12.5" ry="12.5" style="stroke:#181818;stroke-width:0.5;" width="105" x="57" y="719.3213"/><text fill="#000000" font-family="sans-serif" font-size="12" lengthAdjust="spacing" textLength="85" x="67" y="740.46">Clear_LED_1()</text><polygon fill="#F1F1F1" points="89.5,670.9189,129.5,670.9189,141.5,682.9189,129.5,694.9189,89.5,694.9189,77.5,682.9189,89.5,670.9189" style="stroke:#181818;stroke-width:0.5;"/><text fill="#000000" font-family="sans-serif" font-size="11" lengthAdjust="spacing" textLength="20" x="113.5" y="705.1294">yes</text><text fill="#000000" font-family="sans-serif" font-size="11" lengthAdjust="spacing" textLength="40" x="89.5" y="686.7271">A == 0</text><polygon fill="#F1F1F1" points="109.5,773.29,121.5,785.29,109.5,797.29,97.5,785.29,109.5,773.29" style="stroke:#181818;stroke-width:0.5;"/><rect fill="#F1F1F1" height="33.9688" rx="12.5" ry="12.5" style="stroke:#181818;stroke-width:0.5;" width="88" x="65.5" y="838.689"/><text fill="#000000" font-family="sans-serif" font-size="12" lengthAdjust="spacing" textLength="68" x="75.5" y="859.8276">A = Temp2</text><rect fill="#F1F1F1" height="33.9688" rx="12.5" ry="12.5" style="stroke:#181818;stroke-width:0.5;" width="102" x="58.5" y="892.6577"/><text fill="#000000" font-family="sans-serif" font-size="12" lengthAdjust="spacing" textLength="82" x="68.5" y="913.7964">A = A &amp; 0x30</text><rect fill="#F1F1F1" height="33.9688" rx="12.5" ry="12.5" style="stroke:#181818;stroke-width:0.5;" width="94" x="62.5" y="946.6265"/><text fill="#000000" font-family="sans-serif" font-size="12" lengthAdjust="spacing" textLength="74" x="72.5" y="967.7651">Set_LED_2()</text><rect fill="#F1F1F1" height="33.9688" rx="12.5" ry="12.5" style="stroke:#181818;stroke-width:0.5;" width="105" x="57" y="1048.9976"/><text fill="#000000" font-family="sans-serif" font-size="12" lengthAdjust="spacing" textLength="85" x="67" y="1070.1362">Clear_LED_2()</text><polygon fill="#F1F1F1" points="89.5,1000.5952,129.5,1000.5952,141.5,1012.5952,129.5,1024.5952,89.5,1024.5952,77.5,1012.5952,89.5,1000.5952" style="stroke:#181818;stroke-width:0.5;"/><text fill="#000000" font-family="sans-serif" font-size="11" lengthAdjust="spacing" textLength="20" x="113.5" y="1034.8057">yes</text><text fill="#000000" font-family="sans-serif" font-size="11" lengthAdjust="spacing" textLength="40" x="89.5" y="1016.4033">A == 0</text><polygon fill="#F1F1F1" points="109.5,1102.9663,121.5,1114.9663,109.5,1126.9663,97.5,1114.9663,109.5,1102.9663" style="stroke:#181818;stroke-width:0.5;"/><rect fill="#F1F1F1" height="33.9688" rx="12.5" ry="12.5" style="stroke:#181818;stroke-width:0.5;" width="88" x="65.5" y="1168.3652"/><text fill="#000000" font-family="sans-serif" font-size="12" lengthAdjust="spacing" textLength="68" x="75.5" y="1189.5039">A = Temp2</text><rect fill="#F1F1F1" height="33.9688" rx="12.5" ry="12.5" style="stroke:#181818;stroke-width:0.5;" width="102" x="58.5" y="1222.334"/><text fill="#000000" font-family="sans-serif" font-size="12" lengthAdjust="spacing" textLength="82" x="68.5" y="1243.4727">A = A &amp; 0xC0</text><rect fill="#F1F1F1" height="33.9688" rx="12.5" ry="12.5" style="stroke:#181818;stroke-width:0.5;" width="94" x="62.5" y="1276.3027"/><text fill="#000000" font-family="sans-serif" font-size="12" lengthAdjust="spacing" textLength="74" x="72.5" y="1297.4414">Set_LED_3()</text><rect fill="#F1F1F1" height="33.9688" rx="12.5" ry="12.5" style="stroke:#181818;stroke-width:0.5;" width="105" x="57" y="1378.6738"/><text fill="#000000" font-family="sans-serif" font-size="12" lengthAdjust="spacing" textLength="85" x="67" y="1399.8125">Clear_LED_3()</text><polygon fill="#F1F1F1" points="89.5,1330.2715,129.5,1330.2715,141.5,1342.2715,129.5,1354.2715,89.5,1354.2715,77.5,1342.2715,89.5,1330.2715" style="stroke:#181818;stroke-width:0.5;"/><text fill="#000000" font-family="sans-serif" font-size="11" lengthAdjust="spacing" textLength="20" x="113.5" y="1364.4819">yes</text><text fill="#000000" font-family="sans-serif" font-size="11" lengthAdjust="spacing" textLength="40" x="89.5" y="1346.0796">A == 0</text><polygon fill="#F1F1F1" points="109.5,1432.6426,121.5,1444.6426,109.5,1456.6426,97.5,1444.6426,109.5,1432.6426" style="stroke:#181818;stroke-width:0.5;"/><rect fill="#F1F1F1" height="33.9688" rx="12.5" ry="12.5" style="stroke:#181818;stroke-width:0.5;" width="38" x="90.5" y="1476.6426"/><text fill="#000000" font-family="sans-serif" font-size="12" lengthAdjust="spacing" textLength="18" x="100.5" y="1497.7813">ret</text><ellipse cx="109.5" cy="1541.6113" rx="11" ry="11" style="stroke:#222222;stroke-width:1.0;fill:none;"/><ellipse cx="109.5" cy="1541.6113" fill="#222222" rx="6" ry="6" style="stroke:#111111;stroke-width:1.0;"/><line style="stroke:#181818;stroke-width:1.0;" x1="109.5" x2="109.5" y1="30" y2="50"/><polygon fill="#181818" points="105.5,40,109.5,50,113.5,40,109.5,44" style="stroke:#181818;stroke-width:1.0;"/><line style="stroke:#181818;stroke-width:1.0;" x1="109.5" x2="109.5" y1="83.9688" y2="103.9688"/><polygon fill="#181818" points="105.5,93.9688,109.5,103.9688,113.5,93.9688,109.5,97.9688" style="stroke:#181818;stroke-width:1.0;"/><line style="stroke:#181818;stroke-width:1.0;" x1="109.5" x2="109.5" y1="137.9375" y2="157.9375"/><polygon fill="#181818" points="105.5,147.9375,109.5,157.9375,113.5,147.9375,109.5,151.9375" style="stroke:#181818;stroke-width:1.0;"/><line style="stroke:#181818;stroke-width:1.0;" x1="109.5" x2="109.5" y1="191.9063" y2="233.3052"/><polygon fill="#181818" points="105.5,223.3052,109.5,233.3052,113.5,223.3052,109.5,227.3052" style="stroke:#181818;stroke-width:1.0;"/><text fill="#000000" font-family="sans-serif" font-size="11" lengthAdjust="spacing" textLength="72" x="113.5" y="213.2109">Turn on led0</text><line style="stroke:#181818;stroke-width:1.0;" x1="109.5" x2="109.5" y1="267.2739" y2="287.2739"/><polygon fill="#181818" points="105.5,277.2739,109.5,287.2739,113.5,277.2739,109.5,281.2739" style="stroke:#181818;stroke-width:1.0;"/><line style="stroke:#181818;stroke-width:1.0;" x1="109.5" x2="109.5" y1="365.2427" y2="389.645"/><polygon fill="#181818" points="105.5,379.645,109.5,389.645,113.5,379.645,109.5,383.645" style="stroke:#181818;stroke-width:1.0;"/><line style="stroke:#181818;stroke-width:1.0;" x1="141.5" x2="172" y1="353.2427" y2="353.2427"/><polygon fill="#181818" points="168,396.6294,172,406.6294,176,396.6294,172,400.6294" style="stroke:#181818;stroke-width:1.0;"/><line style="stroke:#181818;stroke-width:1.0;" x1="172" x2="172" y1="353.2427" y2="455.6138"/><line style="stroke:#181818;stroke-width:1.0;" x1="172" x2="121.5" y1="455.6138" y2="455.6138"/><polygon fill="#181818" points="131.5,451.6138,121.5,455.6138,131.5,459.6138,127.5,455.6138" style="stroke:#181818;stroke-width:1.0;"/><line style="stroke:#181818;stroke-width:1.0;" x1="109.5" x2="109.5" y1="423.6138" y2="443.6138"/><polygon fill="#181818" points="105.5,433.6138,109.5,443.6138,113.5,433.6138,109.5,437.6138" style="stroke:#181818;stroke-width:1.0;"/><line style="stroke:#181818;stroke-width:1.0;" x1="109.5" x2="109.5" y1="321.2427" y2="341.2427"/><polygon fill="#181818" points="105.5,331.2427,109.5,341.2427,113.5,331.2427,109.5,335.2427" style="stroke:#181818;stroke-width:1.0;"/><line style="stroke:#181818;stroke-width:1.0;" x1="109.5" x2="109.5" y1="467.6138" y2="509.0127"/><polygon fill="#181818" points="105.5,499.0127,109.5,509.0127,113.5,499.0127,109.5,503.0127" style="stroke:#181818;stroke-width:1.0;"/><text fill="#000000" font-family="sans-serif" font-size="11" lengthAdjust="spacing" textLength="72" x="113.5" y="488.9185">Turn on led1</text><line style="stroke:#181818;stroke-width:1.0;" x1="109.5" x2="109.5" y1="542.9814" y2="562.9814"/><polygon fill="#181818" points="105.5,552.9814,109.5,562.9814,113.5,552.9814,109.5,556.9814" style="stroke:#181818;stroke-width:1.0;"/><line style="stroke:#181818;stroke-width:1.0;" x1="109.5" x2="109.5" y1="596.9502" y2="616.9502"/><polygon fill="#181818" points="105.5,606.9502,109.5,616.9502,113.5,606.9502,109.5,610.9502" style="stroke:#181818;stroke-width:1.0;"/><line style="stroke:#181818;stroke-width:1.0;" x1="109.5" x2="109.5" y1="694.9189" y2="719.3213"/><polygon fill="#181818" points="105.5,709.3213,109.5,719.3213,113.5,709.3213,109.5,713.3213" style="stroke:#181818;stroke-width:1.0;"/><line style="stroke:#181818;stroke-width:1.0;" x1="141.5" x2="172" y1="682.9189" y2="682.9189"/><polygon fill="#181818" points="168,726.3057,172,736.3057,176,726.3057,172,730.3057" style="stroke:#181818;stroke-width:1.0;"/><line style="stroke:#181818;stroke-width:1.0;" x1="172" x2="172" y1="682.9189" y2="785.29"/><line style="stroke:#181818;stroke-width:1.0;" x1="172" x2="121.5" y1="785.29" y2="785.29"/><polygon fill="#181818" points="131.5,781.29,121.5,785.29,131.5,789.29,127.5,785.29" style="stroke:#181818;stroke-width:1.0;"/><line style="stroke:#181818;stroke-width:1.0;" x1="109.5" x2="109.5" y1="753.29" y2="773.29"/><polygon fill="#181818" points="105.5,763.29,109.5,773.29,113.5,763.29,109.5,767.29" style="stroke:#181818;stroke-width:1.0;"/><line style="stroke:#181818;stroke-width:1.0;" x1="109.5" x2="109.5" y1="650.9189" y2="670.9189"/><polygon fill="#181818" points="105.5,660.9189,109.5,670.9189,113.5,660.9189,109.5,664.9189" style="stroke:#181818;stroke-width:1.0;"/><line style="stroke:#181818;stroke-width:1.0;" x1="109.5" x2="109.5" y1="797.29" y2="838.689"/><polygon fill="#181818" points="105.5,828.689,109.5,838.689,113.5,828.689,109.5,832.689" style="stroke:#181818;stroke-width:1.0;"/><text fill="#000000" font-family="sans-serif" font-size="11" lengthAdjust="spacing" textLength="72" x="113.5" y="818.5947">Turn on led2</text><line style="stroke:#181818;stroke-width:1.0;" x1="109.5" x2="109.5" y1="872.6577" y2="892.6577"/><polygon fill="#181818" points="105.5,882.6577,109.5,892.6577,113.5,882.6577,109.5,886.6577" style="stroke:#181818;stroke-width:1.0;"/><line style="stroke:#181818;stroke-width:1.0;" x1="109.5" x2="109.5" y1="926.6265" y2="946.6265"/><polygon fill="#181818" points="105.5,936.6265,109.5,946.6265,113.5,936.6265,109.5,940.6265" style="stroke:#181818;stroke-width:1.0;"/><line style="stroke:#181818;stroke-width:1.0;" x1="109.5" x2="109.5" y1="1024.5952" y2="1048.9976"/><polygon fill="#181818" points="105.5,1038.9976,109.5,1048.9976,113.5,1038.9976,109.5,1042.9976" style="stroke:#181818;stroke-width:1.0;"/><line style="stroke:#181818;stroke-width:1.0;" x1="141.5" x2="172" y1="1012.5952" y2="1012.5952"/><polygon fill="#181818" points="168,1055.9819,172,1065.9819,176,1055.9819,172,1059.9819" style="stroke:#181818;stroke-width:1.0;"/><line style="stroke:#181818;stroke-width:1.0;" x1="172" x2="172" y1="1012.5952" y2="1114.9663"/><line style="stroke:#181818;stroke-width:1.0;" x1="172" x2="121.5" y1="1114.9663" y2="1114.9663"/><polygon fill="#181818" points="131.5,1110.9663,121.5,1114.9663,131.5,1118.9663,127.5,1114.9663" style="stroke:#181818;stroke-width:1.0;"/><line style="stroke:#181818;stroke-width:1.0;" x1="109.5" x2="109.5" y1="1082.9663" y2="1102.9663"/><polygon fill="#181818" points="105.5,1092.9663,109.5,1102.9663,113.5,1092.9663,109.5,1096.9663" style="stroke:#181818;stroke-width:1.0;"/><line style="stroke:#181818;stroke-width:1.0;" x1="109.5" x2="109.5" y1="980.5952" y2="1000.5952"/><polygon fill="#181818" points="105.5,990.5952,109.5,1000.5952,113.5,990.5952,109.5,994.5952" style="stroke:#181818;stroke-width:1.0;"/><line style="stroke:#181818;stroke-width:1.0;" x1="109.5" x2="109.5" y1="1126.9663" y2="1168.3652"/><polygon fill="#181818" points="105.5,1158.3652,109.5,1168.3652,113.5,1158.3652,109.5,1162.3652" style="stroke:#181818;stroke-width:1.0;"/><text fill="#000000" font-family="sans-serif" font-size="11" lengthAdjust="spacing" textLength="72" x="113.5" y="1148.271">Turn on led3</text><line style="stroke:#181818;stroke-width:1.0;" x1="109.5" x2="109.5" y1="1202.334" y2="1222.334"/><polygon fill="#181818" points="105.5,1212.334,109.5,1222.334,113.5,1212.334,109.5,1216.334" style="stroke:#181818;stroke-width:1.0;"/><line style="stroke:#181818;stroke-width:1.0;" x1="109.5" x2="109.5" y1="1256.3027" y2="1276.3027"/><polygon fill="#181818" points="105.5,1266.3027,109.5,1276.3027,113.5,1266.3027,109.5,1270.3027" style="stroke:#181818;stroke-width:1.0;"/><line style="stroke:#181818;stroke-width:1.0;" x1="109.5" x2="109.5" y1="1354.2715" y2="1378.6738"/><polygon fill="#181818" points="105.5,1368.6738,109.5,1378.6738,113.5,1368.6738,109.5,1372.6738" style="stroke:#181818;stroke-width:1.0;"/><line style="stroke:#181818;stroke-width:1.0;" x1="141.5" x2="172" y1="1342.2715" y2="1342.2715"/><polygon fill="#181818" points="168,1385.6582,172,1395.6582,176,1385.6582,172,1389.6582" style="stroke:#181818;stroke-width:1.0;"/><line style="stroke:#181818;stroke-width:1.0;" x1="172" x2="172" y1="1342.2715" y2="1444.6426"/><line style="stroke:#181818;stroke-width:1.0;" x1="172" x2="121.5" y1="1444.6426" y2="1444.6426"/><polygon fill="#181818" points="131.5,1440.6426,121.5,1444.6426,131.5,1448.6426,127.5,1444.6426" style="stroke:#181818;stroke-width:1.0;"/><line style="stroke:#181818;stroke-width:1.0;" x1="109.5" x2="109.5" y1="1412.6426" y2="1432.6426"/><polygon fill="#181818" points="105.5,1422.6426,109.5,1432.6426,113.5,1422.6426,109.5,1426.6426" style="stroke:#181818;stroke-width:1.0;"/><line style="stroke:#181818;stroke-width:1.0;" x1="109.5" x2="109.5" y1="1310.2715" y2="1330.2715"/><polygon fill="#181818" points="105.5,1320.2715,109.5,1330.2715,113.5,1320.2715,109.5,1324.2715" style="stroke:#181818;stroke-width:1.0;"/><line style="stroke:#181818;stroke-width:1.0;" x1="109.5" x2="109.5" y1="1456.6426" y2="1476.6426"/><polygon fill="#181818" points="105.5,1466.6426,109.5,1476.6426,113.5,1466.6426,109.5,1470.6426" style="stroke:#181818;stroke-width:1.0;"/><line style="stroke:#181818;stroke-width:1.0;" x1="109.5" x2="109.5" y1="1510.6113" y2="1530.6113"/><polygon fill="#181818" points="105.5,1520.6113,109.5,1530.6113,113.5,1520.6113,109.5,1524.6113" style="stroke:#181818;stroke-width:1.0;"/><!--MD5=[c8ed872a47092d625b9c6461b08c72c6]
@startuml 
start

:Temp1 = &Pgm_LED_Control;
:A = *Temp1;
:Temp2 = A;
->Turn on led0;
:A = A & 0x03;
:Set_LED_0();
if (A == 0) then (yes)
  :Clear_LED_0();
endif
->Turn on led1;
:A = Temp2;
:A = A & 0x0C;
:Set_LED_1();
if (A == 0) then (yes)
  :Clear_LED_1();
endif
->Turn on led2;
:A = Temp2;
:A = A & 0x30;
:Set_LED_2();
if (A == 0) then (yes)
  :Clear_LED_2();
endif
->Turn on led3;
:A = Temp2;
:A = A & 0xC0;
:Set_LED_3();
if (A == 0) then (yes)
  :Clear_LED_3();
endif

:ret;
stop
@enduml

PlantUML version 1.2022.6(Tue Jun 21 17:34:49 UTC 2022)
(GPL source distribution)
Java Runtime: OpenJDK Runtime Environment
JVM: OpenJDK 64-Bit Server VM
Default Encoding: UTF-8
Language: en
Country: null
--></g></svg>