<?xml version="1.0" encoding="UTF-8" standalone="no"?><svg xmlns="http://www.w3.org/2000/svg" xmlns:xlink="http://www.w3.org/1999/xlink" contentStyleType="text/css" height="423px" preserveAspectRatio="none" style="width:479px;height:423px;background:#FFFFFF;" version="1.1" viewBox="0 0 479 423" width="479px" zoomAndPan="magnify"><defs/><g><ellipse cx="123.5" cy="20" fill="#222222" rx="10" ry="10" style="stroke:#222222;stroke-width:1.0;"/><polygon fill="#F1F1F1" points="47,132.606,200,132.606,212,144.606,200,156.606,47,156.606,35,144.606,47,132.606" style="stroke:#181818;stroke-width:0.5;"/><text fill="#000000" font-family="sans-serif" font-size="11" lengthAdjust="spacing" textLength="153" x="47" y="148.4141">Flag_Timer3_Pending == 0</text><text fill="#000000" font-family="sans-serif" font-size="11" lengthAdjust="spacing" textLength="20" x="212" y="142.0117">yes</text><ellipse cx="254" cy="144.606" rx="11" ry="11" style="stroke:#222222;stroke-width:1.0;fill:none;"/><ellipse cx="254" cy="144.606" fill="#222222" rx="6" ry="6" style="stroke:#111111;stroke-width:1.0;"/><rect fill="#F1F1F1" height="33.9688" rx="12.5" ry="12.5" style="stroke:#181818;stroke-width:0.5;" width="187" x="30" y="196.606"/><text fill="#000000" font-family="sans-serif" font-size="12" lengthAdjust="spacing" textLength="167" x="40" y="217.7446">dshot_tlm_create_packet()</text><polygon fill="#F1F1F1" points="38.5,84.2036,208.5,84.2036,220.5,96.2036,208.5,108.2036,38.5,108.2036,26.5,96.2036,38.5,84.2036" style="stroke:#181818;stroke-width:0.5;"/><text fill="#000000" font-family="sans-serif" font-size="11" lengthAdjust="spacing" textLength="20" x="127.5" y="118.4141">yes</text><text fill="#000000" font-family="sans-serif" font-size="11" lengthAdjust="spacing" textLength="170" x="38.5" y="100.0117">Flag_Telemetry_Pending == 0</text><polygon fill="#F1F1F1" points="123.5,250.5747,135.5,262.5747,123.5,274.5747,111.5,262.5747,123.5,250.5747" style="stroke:#181818;stroke-width:0.5;"/><rect fill="#F1F1F1" height="33.9688" rx="12.5" ry="12.5" style="stroke:#181818;stroke-width:0.5;" width="123" x="62" y="355.3794"/><text fill="#000000" font-family="sans-serif" font-size="12" lengthAdjust="spacing" textLength="103" x="72" y="376.5181">Wdt_Kick_Enable</text><polygon fill="#F1F1F1" points="47,294.5747,200,294.5747,212,306.5747,200,318.5747,47,318.5747,35,306.5747,47,294.5747" style="stroke:#181818;stroke-width:0.5;"/><text fill="#000000" font-family="sans-serif" font-size="11" lengthAdjust="spacing" textLength="20" x="127.5" y="328.7852">yes</text><text fill="#000000" font-family="sans-serif" font-size="11" lengthAdjust="spacing" textLength="153" x="47" y="310.3828">Flag_Timer3_Pending == 1</text><ellipse cx="24" cy="353.5747" rx="11" ry="11" style="stroke:#222222;stroke-width:1.0;fill:none;"/><ellipse cx="24" cy="353.5747" fill="#222222" rx="6" ry="6" style="stroke:#111111;stroke-width:1.0;"/><line style="stroke:#181818;stroke-width:1.0;" x1="123.5" x2="123.5" y1="156.606" y2="196.606"/><polygon fill="#181818" points="119.5,186.606,123.5,196.606,127.5,186.606,123.5,190.606" style="stroke:#181818;stroke-width:1.0;"/><line style="stroke:#181818;stroke-width:1.0;" x1="212" x2="243" y1="144.606" y2="144.606"/><polygon fill="#181818" points="233,140.606,243,144.606,233,148.606,237,144.606" style="stroke:#181818;stroke-width:1.0;"/><line style="stroke:#181818;stroke-width:1.0;" x1="123.5" x2="123.5" y1="108.2036" y2="132.606"/><polygon fill="#181818" points="119.5,122.606,123.5,132.606,127.5,122.606,123.5,126.606" style="stroke:#181818;stroke-width:1.0;"/><line style="stroke:#181818;stroke-width:1.0;" x1="220.5" x2="287" y1="96.2036" y2="96.2036"/><polygon fill="#181818" points="283,166.606,287,176.606,291,166.606,287,170.606" style="stroke:#181818;stroke-width:1.0;"/><line style="stroke:#181818;stroke-width:1.0;" x1="287" x2="287" y1="96.2036" y2="262.5747"/><line style="stroke:#181818;stroke-width:1.0;" x1="287" x2="135.5" y1="262.5747" y2="262.5747"/><polygon fill="#181818" points="145.5,258.5747,135.5,262.5747,145.5,266.5747,141.5,262.5747" style="stroke:#181818;stroke-width:1.0;"/><line style="stroke:#181818;stroke-width:1.0;" x1="123.5" x2="123.5" y1="230.5747" y2="250.5747"/><polygon fill="#181818" points="119.5,240.5747,123.5,250.5747,127.5,240.5747,123.5,244.5747" style="stroke:#181818;stroke-width:1.0;"/><line style="stroke:#181818;stroke-width:1.0;" x1="123.5" x2="123.5" y1="30" y2="84.2036"/><polygon fill="#181818" points="119.5,74.2036,123.5,84.2036,127.5,74.2036,123.5,78.2036" style="stroke:#181818;stroke-width:1.0;"/><text fill="#000000" font-family="sans-serif" font-size="11" lengthAdjust="spacing" textLength="125" x="127.5" y="51.3047">WaitForTimer3 MACRO</text><text fill="#000000" font-family="sans-serif" font-size="11" lengthAdjust="spacing" textLength="332" x="135.5" y="64.1094">Prepare telemetry packet while waiting for Timer3 to wrap</text><line style="stroke:#181818;stroke-width:1.0;" x1="123.5" x2="123.5" y1="318.5747" y2="355.3794"/><polygon fill="#181818" points="119.5,345.3794,123.5,355.3794,127.5,345.3794,123.5,349.3794" style="stroke:#181818;stroke-width:1.0;"/><line style="stroke:#181818;stroke-width:1.0;" x1="123.5" x2="123.5" y1="389.3481" y2="399.3481"/><line style="stroke:#181818;stroke-width:1.0;" x1="123.5" x2="224" y1="399.3481" y2="399.3481"/><polygon fill="#181818" points="220,363.9614,224,353.9614,228,363.9614,224,359.9614" style="stroke:#181818;stroke-width:1.0;"/><line style="stroke:#181818;stroke-width:1.0;" x1="224" x2="224" y1="306.5747" y2="399.3481"/><line style="stroke:#181818;stroke-width:1.0;" x1="224" x2="212" y1="306.5747" y2="306.5747"/><polygon fill="#181818" points="222,302.5747,212,306.5747,222,310.5747,218,306.5747" style="stroke:#181818;stroke-width:1.0;"/><line style="stroke:#181818;stroke-width:1.0;" x1="35" x2="24" y1="306.5747" y2="306.5747"/><line style="stroke:#181818;stroke-width:1.0;" x1="24" x2="24" y1="306.5747" y2="342.5747"/><polygon fill="#181818" points="20,332.5747,24,342.5747,28,332.5747,24,336.5747" style="stroke:#181818;stroke-width:1.0;"/><line style="stroke:#181818;stroke-width:1.0;" x1="123.5" x2="123.5" y1="274.5747" y2="294.5747"/><polygon fill="#181818" points="119.5,284.5747,123.5,294.5747,127.5,284.5747,123.5,288.5747" style="stroke:#181818;stroke-width:1.0;"/><!--MD5=[4a6250a2648029612adbb5f7891d010b]
@startuml 
start
->WaitForTimer3 MACRO
  Prepare telemetry packet while waiting for Timer3 to wrap;
if (Flag_Telemetry_Pending == 0) then (yes)
  if (Flag_Timer3_Pending == 0) then (yes)
    stop
  endif
  :dshot_tlm_create_packet();
endif
while (Flag_Timer3_Pending == 1) is (yes)
  :Wdt_Kick_Enable;
endwhile
stop
@enduml

PlantUML version 1.2022.6(Tue Jun 21 17:34:49 UTC 2022)
(GPL source distribution)
Java Runtime: OpenJDK Runtime Environment
JVM: OpenJDK 64-Bit Server VM
Default Encoding: UTF-8
Language: en
Country: null
--></g></svg>