<?xml version="1.0" encoding="UTF-8" standalone="no"?><svg xmlns="http://www.w3.org/2000/svg" xmlns:xlink="http://www.w3.org/1999/xlink" contentStyleType="text/css" height="244px" preserveAspectRatio="none" style="width:131px;height:244px;background:#FFFFFF;" version="1.1" viewBox="0 0 131 244" width="131px" zoomAndPan="magnify"><defs/><g><ellipse cx="65.5" cy="20" fill="#222222" rx="10" ry="10" style="stroke:#222222;stroke-width:1.0;"/><rect fill="#F1F1F1" height="33.9688" rx="12.5" ry="12.5" style="stroke:#181818;stroke-width:0.5;" width="109" x="11" y="50"/><text fill="#000000" font-family="sans-serif" font-size="12" lengthAdjust="spacing" textLength="89" x="21" y="71.1387">beep_f2_short</text><rect fill="#F1F1F1" height="33.9688" rx="12.5" ry="12.5" style="stroke:#181818;stroke-width:0.5;" width="70" x="30.5" y="103.9688"/><text fill="#000000" font-family="sans-serif" font-size="12" lengthAdjust="spacing" textLength="50" x="40.5" y="125.1074">beep_f1</text><rect fill="#F1F1F1" height="33.9688" rx="12.5" ry="12.5" style="stroke:#181818;stroke-width:0.5;" width="38" x="46.5" y="157.9375"/><text fill="#000000" font-family="sans-serif" font-size="12" lengthAdjust="spacing" textLength="18" x="56.5" y="179.0762">ret</text><ellipse cx="65.5" cy="222.9063" rx="11" ry="11" style="stroke:#222222;stroke-width:1.0;fill:none;"/><ellipse cx="65.5" cy="222.9063" fill="#222222" rx="6" ry="6" style="stroke:#111111;stroke-width:1.0;"/><line style="stroke:#181818;stroke-width:1.0;" x1="65.5" x2="65.5" y1="30" y2="50"/><polygon fill="#181818" points="61.5,40,65.5,50,69.5,40,65.5,44" style="stroke:#181818;stroke-width:1.0;"/><line style="stroke:#181818;stroke-width:1.0;" x1="65.5" x2="65.5" y1="83.9688" y2="103.9688"/><polygon fill="#181818" points="61.5,93.9688,65.5,103.9688,69.5,93.9688,65.5,97.9688" style="stroke:#181818;stroke-width:1.0;"/><line style="stroke:#181818;stroke-width:1.0;" x1="65.5" x2="65.5" y1="137.9375" y2="157.9375"/><polygon fill="#181818" points="61.5,147.9375,65.5,157.9375,69.5,147.9375,65.5,151.9375" style="stroke:#181818;stroke-width:1.0;"/><line style="stroke:#181818;stroke-width:1.0;" x1="65.5" x2="65.5" y1="191.9063" y2="211.9063"/><polygon fill="#181818" points="61.5,201.9063,65.5,211.9063,69.5,201.9063,65.5,205.9063" style="stroke:#181818;stroke-width:1.0;"/><!--MD5=[69918140437d6f38dc6824bbbb27d763]
@startuml
start
:beep_f2_short;
:beep_f1;
:ret;
stop
@enduml

PlantUML version 1.2022.6(Tue Jun 21 17:34:49 UTC 2022)
(GPL source distribution)
Java Runtime: OpenJDK Runtime Environment
JVM: OpenJDK 64-Bit Server VM
Default Encoding: UTF-8
Language: en
Country: null
--></g></svg>