<?xml version="1.0" encoding="UTF-8" standalone="no"?><svg xmlns="http://www.w3.org/2000/svg" xmlns:xlink="http://www.w3.org/1999/xlink" contentStyleType="text/css" height="341px" preserveAspectRatio="none" style="width:302px;height:341px;background:#FFFFFF;" version="1.1" viewBox="0 0 302 341" width="302px" zoomAndPan="magnify"><defs/><g><ellipse cx="101" cy="20" fill="#222222" rx="10" ry="10" style="stroke:#222222;stroke-width:1.0;"/><rect fill="#F1F1F1" height="33.9688" rx="12.5" ry="12.5" style="stroke:#181818;stroke-width:0.5;" width="134" x="34" y="71.3989"/><text fill="#000000" font-family="sans-serif" font-size="12" lengthAdjust="spacing" textLength="114" x="44" y="92.5376">All_Pwm_Fets_Off()</text><rect fill="#F1F1F1" height="33.9688" rx="12.5" ry="12.5" style="stroke:#181818;stroke-width:0.5;" width="133" x="34.5" y="146.7666"/><text fill="#000000" font-family="sans-serif" font-size="12" lengthAdjust="spacing" textLength="113" x="44.5" y="167.9053">All_Com_Fets_Off()</text><rect fill="#F1F1F1" height="33.9688" rx="12.5" ry="12.5" style="stroke:#181818;stroke-width:0.5;" width="180" x="11" y="200.7354"/><text fill="#000000" font-family="sans-serif" font-size="12" lengthAdjust="spacing" textLength="160" x="21" y="221.874">Set_All_Pwm_Phases_Off()</text><rect fill="#F1F1F1" height="33.9688" rx="12.5" ry="12.5" style="stroke:#181818;stroke-width:0.5;" width="38" x="82" y="254.7041"/><text fill="#000000" font-family="sans-serif" font-size="12" lengthAdjust="spacing" textLength="18" x="92" y="275.8428">ret</text><ellipse cx="101" cy="319.6729" rx="11" ry="11" style="stroke:#222222;stroke-width:1.0;fill:none;"/><ellipse cx="101" cy="319.6729" fill="#222222" rx="6" ry="6" style="stroke:#111111;stroke-width:1.0;"/><line style="stroke:#181818;stroke-width:1.0;" x1="101" x2="101" y1="30" y2="71.3989"/><polygon fill="#181818" points="97,61.3989,101,71.3989,105,61.3989,101,65.3989" style="stroke:#181818;stroke-width:1.0;"/><text fill="#000000" font-family="sans-serif" font-size="11" lengthAdjust="spacing" textLength="124" x="105" y="51.3047">Turn off all pwm FETs</text><line style="stroke:#181818;stroke-width:1.0;" x1="101" x2="101" y1="105.3677" y2="146.7666"/><polygon fill="#181818" points="97,136.7666,101,146.7666,105,136.7666,101,140.7666" style="stroke:#181818;stroke-width:1.0;"/><text fill="#000000" font-family="sans-serif" font-size="11" lengthAdjust="spacing" textLength="185" x="105" y="126.6724">Turn off all complementary FETs</text><line style="stroke:#181818;stroke-width:1.0;" x1="101" x2="101" y1="180.7354" y2="200.7354"/><polygon fill="#181818" points="97,190.7354,101,200.7354,105,190.7354,101,194.7354" style="stroke:#181818;stroke-width:1.0;"/><line style="stroke:#181818;stroke-width:1.0;" x1="101" x2="101" y1="234.7041" y2="254.7041"/><polygon fill="#181818" points="97,244.7041,101,254.7041,105,244.7041,101,248.7041" style="stroke:#181818;stroke-width:1.0;"/><line style="stroke:#181818;stroke-width:1.0;" x1="101" x2="101" y1="288.6729" y2="308.6729"/><polygon fill="#181818" points="97,298.6729,101,308.6729,105,298.6729,101,302.6729" style="stroke:#181818;stroke-width:1.0;"/><!--MD5=[a9f4d0611956d8c0dc357c8be1682285]
@startuml 
start
->Turn off all pwm FETs;
:All_Pwm_Fets_Off();
->Turn off all complementary FETs;
:All_Com_Fets_Off();
:Set_All_Pwm_Phases_Off();
:ret;
stop
@enduml

PlantUML version 1.2022.6(Tue Jun 21 17:34:49 UTC 2022)
(GPL source distribution)
Java Runtime: OpenJDK Runtime Environment
JVM: OpenJDK 64-Bit Server VM
Default Encoding: UTF-8
Language: en
Country: null
--></g></svg>