<?xml version="1.0" encoding="UTF-8" standalone="no"?><svg xmlns="http://www.w3.org/2000/svg" xmlns:xlink="http://www.w3.org/1999/xlink" contentStyleType="text/css" height="1801px" preserveAspectRatio="none" style="width:784px;height:1801px;background:#FFFFFF;" version="1.1" viewBox="0 0 784 1801" width="784px" zoomAndPan="magnify"><defs/><g><ellipse cx="144" cy="20" fill="#222222" rx="10" ry="10" style="stroke:#222222;stroke-width:1.0;"/><rect fill="#F1F1F1" height="33.9688" rx="12.5" ry="12.5" style="stroke:#181818;stroke-width:0.5;" width="224" x="32" y="186.6411"/><text fill="#000000" font-family="sans-serif" font-size="12" lengthAdjust="spacing" textLength="204" x="42" y="207.7798">DPTR = &amp;Eep_Pgm_Beep_Melody</text><rect fill="#F1F1F1" height="33.9688" rx="12.5" ry="12.5" style="stroke:#181818;stroke-width:0.5;" width="54" x="117" y="240.6099"/><text fill="#000000" font-family="sans-serif" font-size="12" lengthAdjust="spacing" textLength="34" x="127" y="261.7485">A = 0</text><rect fill="#F1F1F1" height="33.9688" rx="12.5" ry="12.5" style="stroke:#181818;stroke-width:0.5;" width="120" x="84" y="294.5786"/><text fill="#000000" font-family="sans-serif" font-size="12" lengthAdjust="spacing" textLength="100" x="94" y="315.7173">A = *(A + DPTR)</text><rect fill="#F1F1F1" height="33.9688" rx="12.5" ry="12.5" style="stroke:#181818;stroke-width:0.5;" width="64" x="112" y="348.5474"/><text fill="#000000" font-family="sans-serif" font-size="12" lengthAdjust="spacing" textLength="44" x="122" y="369.686">A = ~A</text><rect fill="#F1F1F1" height="33.9688" rx="12.5" ry="12.5" style="stroke:#181818;stroke-width:0.5;" width="96" x="96" y="472.3174"/><text fill="#000000" font-family="sans-serif" font-size="12" lengthAdjust="spacing" textLength="76" x="106" y="493.4561">Temp5 = 62</text><rect fill="#F1F1F1" height="33.9688" rx="12.5" ry="12.5" style="stroke:#181818;stroke-width:0.5;" width="266" x="11" y="526.2861"/><text fill="#000000" font-family="sans-serif" font-size="12" lengthAdjust="spacing" textLength="246" x="21" y="547.4248">DPTR = &amp;Eep_Pgm_Beep_Melody + 04h</text><rect fill="#F1F1F1" height="33.9688" rx="12.5" ry="12.5" style="stroke:#181818;stroke-width:0.5;" width="54" x="117" y="652.1538"/><text fill="#000000" font-family="sans-serif" font-size="12" lengthAdjust="spacing" textLength="34" x="127" y="673.2925">A = 0</text><rect fill="#F1F1F1" height="33.9688" rx="12.5" ry="12.5" style="stroke:#181818;stroke-width:0.5;" width="120" x="84" y="706.1226"/><text fill="#000000" font-family="sans-serif" font-size="12" lengthAdjust="spacing" textLength="100" x="94" y="727.2612">A = *(A + DPTR)</text><rect fill="#F1F1F1" height="33.9688" rx="12.5" ry="12.5" style="stroke:#181818;stroke-width:0.5;" width="38" x="125" y="808.4937"/><text fill="#000000" font-family="sans-serif" font-size="12" lengthAdjust="spacing" textLength="18" x="135" y="829.6323">ret</text><ellipse cx="144" cy="881.978" rx="11" ry="11" style="stroke:#222222;stroke-width:1.0;fill:none;"/><ellipse cx="144" cy="881.978" fill="#222222" rx="6" ry="6" style="stroke:#111111;stroke-width:1.0;"/><polygon fill="#F1F1F1" points="124,760.0913,164,760.0913,176,772.0913,164,784.0913,124,784.0913,112,772.0913,124,760.0913" style="stroke:#181818;stroke-width:0.5;"/><text fill="#000000" font-family="sans-serif" font-size="11" lengthAdjust="spacing" textLength="20" x="148" y="794.3018">yes</text><text fill="#000000" font-family="sans-serif" font-size="11" lengthAdjust="spacing" textLength="40" x="124" y="775.8994">A == 0</text><rect fill="#F1F1F1" height="33.9688" rx="12.5" ry="12.5" style="stroke:#181818;stroke-width:0.5;" width="128" x="80" y="934.978"/><text fill="#000000" font-family="sans-serif" font-size="12" lengthAdjust="spacing" textLength="108" x="90" y="956.1167">DPTR = DPTR + 1</text><rect fill="#F1F1F1" height="33.9688" rx="12.5" ry="12.5" style="stroke:#181818;stroke-width:0.5;" width="88" x="100" y="988.9468"/><text fill="#000000" font-family="sans-serif" font-size="12" lengthAdjust="spacing" textLength="68" x="110" y="1010.0854">Temp4 = A</text><rect fill="#F1F1F1" height="33.9688" rx="12.5" ry="12.5" style="stroke:#181818;stroke-width:0.5;" width="54" x="117" y="1077.1191"/><text fill="#000000" font-family="sans-serif" font-size="12" lengthAdjust="spacing" textLength="34" x="127" y="1098.2578">A = 0</text><rect fill="#F1F1F1" height="33.9688" rx="12.5" ry="12.5" style="stroke:#181818;stroke-width:0.5;" width="120" x="84" y="1131.0879"/><text fill="#000000" font-family="sans-serif" font-size="12" lengthAdjust="spacing" textLength="100" x="94" y="1152.2266">A = *(A + DPTR)</text><rect fill="#F1F1F1" height="33.9688" rx="12.5" ry="12.5" style="stroke:#181818;stroke-width:0.5;" width="88" x="100" y="1185.0566"/><text fill="#000000" font-family="sans-serif" font-size="12" lengthAdjust="spacing" textLength="68" x="110" y="1206.1953">Temp3 = A</text><polygon fill="#F1F1F1" points="127,1239.0254,161,1239.0254,173,1251.0254,161,1263.0254,127,1263.0254,115,1251.0254,127,1239.0254" style="stroke:#181818;stroke-width:0.5;"/><text fill="#000000" font-family="sans-serif" font-size="11" lengthAdjust="spacing" textLength="34" x="127" y="1254.8335">A != 0</text><text fill="#000000" font-family="sans-serif" font-size="11" lengthAdjust="spacing" textLength="20" x="95" y="1248.4312">yes</text><text fill="#000000" font-family="sans-serif" font-size="11" lengthAdjust="spacing" textLength="14" x="173" y="1248.4312">no</text><rect fill="#F1F1F1" height="33.9688" rx="12.5" ry="12.5" style="stroke:#181818;stroke-width:0.5;" width="62" x="65.5" y="1273.0254"/><text fill="#000000" font-family="sans-serif" font-size="12" lengthAdjust="spacing" textLength="42" x="75.5" y="1294.1641">beep()</text><rect fill="#F1F1F1" height="33.9688" rx="12.5" ry="12.5" style="stroke:#181818;stroke-width:0.5;" width="88" x="147.5" y="1273.0254"/><text fill="#000000" font-family="sans-serif" font-size="12" lengthAdjust="spacing" textLength="68" x="157.5" y="1294.1641">A = Temp4</text><rect fill="#F1F1F1" height="33.9688" rx="12.5" ry="12.5" style="stroke:#181818;stroke-width:0.5;" width="88" x="147.5" y="1326.9941"/><text fill="#000000" font-family="sans-serif" font-size="12" lengthAdjust="spacing" textLength="68" x="157.5" y="1348.1328">Temp2 = A</text><rect fill="#F1F1F1" height="33.9688" rx="12.5" ry="12.5" style="stroke:#181818;stroke-width:0.5;" width="88" x="147.5" y="1380.9629"/><text fill="#000000" font-family="sans-serif" font-size="12" lengthAdjust="spacing" textLength="68" x="157.5" y="1402.1016">Temp3 = 0</text><rect fill="#F1F1F1" height="33.9688" rx="12.5" ry="12.5" style="stroke:#181818;stroke-width:0.5;" width="79" x="152" y="1434.9316"/><text fill="#000000" font-family="sans-serif" font-size="12" lengthAdjust="spacing" textLength="59" x="162" y="1456.0703">wait_ms()</text><polygon fill="#F1F1F1" points="144,1474.9004,156,1486.9004,144,1498.9004,132,1486.9004,144,1474.9004" style="stroke:#181818;stroke-width:0.5;"/><rect fill="#F1F1F1" height="33.9688" rx="12.5" ry="12.5" style="stroke:#181818;stroke-width:0.5;" width="128" x="80" y="1518.9004"/><text fill="#000000" font-family="sans-serif" font-size="12" lengthAdjust="spacing" textLength="108" x="90" y="1540.0391">DPTR = DPTR + 1</text><rect fill="#F1F1F1" height="33.9688" rx="12.5" ry="12.5" style="stroke:#181818;stroke-width:0.5;" width="142" x="73" y="1572.8691"/><text fill="#000000" font-family="sans-serif" font-size="12" lengthAdjust="spacing" textLength="122" x="83" y="1594.0078">Temp5 = Temp5 - 1</text><polygon fill="#F1F1F1" points="144,580.2549,156,592.2549,144,604.2549,132,592.2549,144,580.2549" style="stroke:#181818;stroke-width:0.5;"/><polygon fill="#F1F1F1" points="111,1626.8379,177,1626.8379,189,1638.8379,177,1650.8379,111,1650.8379,99,1638.8379,111,1626.8379" style="stroke:#181818;stroke-width:0.5;"/><text fill="#000000" font-family="sans-serif" font-size="11" lengthAdjust="spacing" textLength="66" x="111" y="1642.646">Temp5 != 0</text><text fill="#000000" font-family="sans-serif" font-size="11" lengthAdjust="spacing" textLength="20" x="189" y="1636.2437">yes</text><polygon fill="#F1F1F1" points="127,423.915,161,423.915,173,435.915,161,447.915,127,447.915,115,435.915,127,423.915" style="stroke:#181818;stroke-width:0.5;"/><text fill="#000000" font-family="sans-serif" font-size="11" lengthAdjust="spacing" textLength="20" x="148" y="458.1255">yes</text><text fill="#000000" font-family="sans-serif" font-size="11" lengthAdjust="spacing" textLength="34" x="127" y="439.7231">A != 0</text><polygon fill="#F1F1F1" points="144,1670.8379,156,1682.8379,144,1694.8379,132,1682.8379,144,1670.8379" style="stroke:#181818;stroke-width:0.5;"/><rect fill="#F1F1F1" height="33.9688" rx="12.5" ry="12.5" style="stroke:#181818;stroke-width:0.5;" width="38" x="125" y="1714.8379"/><text fill="#000000" font-family="sans-serif" font-size="12" lengthAdjust="spacing" textLength="18" x="135" y="1735.9766">ret</text><ellipse cx="144" cy="1779.8066" rx="11" ry="11" style="stroke:#222222;stroke-width:1.0;fill:none;"/><ellipse cx="144" cy="1779.8066" fill="#222222" rx="6" ry="6" style="stroke:#111111;stroke-width:1.0;"/><line style="stroke:#181818;stroke-width:1.0;" x1="144" x2="144" y1="30" y2="186.6411"/><polygon fill="#181818" points="140,176.6411,144,186.6411,148,176.6411,144,180.6411" style="stroke:#181818;stroke-width:1.0;"/><text fill="#000000" font-family="sans-serif" font-size="11" lengthAdjust="spacing" textLength="100" x="148" y="51.3047">Play beep melody</text><text fill="#000000" font-family="sans-serif" font-size="11" lengthAdjust="spacing" textLength="4" x="148" y="64.1094"> </text><text fill="#000000" font-family="sans-serif" font-size="11" lengthAdjust="spacing" textLength="245" x="148" y="76.9141">Plays a beep melody from eeprom storage</text><text fill="#000000" font-family="sans-serif" font-size="11" lengthAdjust="spacing" textLength="4" x="148" y="89.7188"> </text><text fill="#000000" font-family="sans-serif" font-size="11" lengthAdjust="spacing" textLength="355" x="148" y="102.5234">A melody has 64 pairs of (item1, item2) - a total of 128 items.</text><text fill="#000000" font-family="sans-serif" font-size="11" lengthAdjust="spacing" textLength="276" x="148" y="115.3281">the first 4 values of the 128 items are metadata</text><text fill="#000000" font-family="sans-serif" font-size="11" lengthAdjust="spacing" textLength="514" x="148" y="128.1328">item2 - is the duration of each pulse of the musical note, lower the value, higher the pitch</text><text fill="#000000" font-family="sans-serif" font-size="11" lengthAdjust="spacing" textLength="624" x="148" y="140.9375">item1 - if item2 is zero, it is the number of milliseconds of wait time, else it is the number of pulses of item2</text><text fill="#000000" font-family="sans-serif" font-size="11" lengthAdjust="spacing" textLength="4" x="148" y="153.7422"> </text><text fill="#000000" font-family="sans-serif" font-size="11" lengthAdjust="spacing" textLength="362" x="148" y="166.5469">Requirements: Interrupts must be disabled and FETs turned off</text><line style="stroke:#181818;stroke-width:1.0;" x1="144" x2="144" y1="220.6099" y2="240.6099"/><polygon fill="#181818" points="140,230.6099,144,240.6099,148,230.6099,144,234.6099" style="stroke:#181818;stroke-width:1.0;"/><line style="stroke:#181818;stroke-width:1.0;" x1="144" x2="144" y1="274.5786" y2="294.5786"/><polygon fill="#181818" points="140,284.5786,144,294.5786,148,284.5786,144,288.5786" style="stroke:#181818;stroke-width:1.0;"/><line style="stroke:#181818;stroke-width:1.0;" x1="144" x2="144" y1="328.5474" y2="348.5474"/><polygon fill="#181818" points="140,338.5474,144,348.5474,148,338.5474,144,342.5474" style="stroke:#181818;stroke-width:1.0;"/><line style="stroke:#181818;stroke-width:1.0;" x1="144" x2="144" y1="506.2861" y2="526.2861"/><polygon fill="#181818" points="140,516.2861,144,526.2861,148,516.2861,144,520.2861" style="stroke:#181818;stroke-width:1.0;"/><line style="stroke:#181818;stroke-width:1.0;" x1="144" x2="144" y1="686.1226" y2="706.1226"/><polygon fill="#181818" points="140,696.1226,144,706.1226,148,696.1226,144,700.1226" style="stroke:#181818;stroke-width:1.0;"/><line style="stroke:#181818;stroke-width:1.0;" x1="144" x2="144" y1="842.4624" y2="870.978"/><polygon fill="#181818" points="140,860.978,144,870.978,148,860.978,144,864.978" style="stroke:#181818;stroke-width:1.0;"/><line style="stroke:#181818;stroke-width:1.0;" x1="144" x2="144" y1="784.0913" y2="808.4937"/><polygon fill="#181818" points="140,798.4937,144,808.4937,148,798.4937,144,802.4937" style="stroke:#181818;stroke-width:1.0;"/><line style="stroke:#181818;stroke-width:1.0;" x1="176" x2="188" y1="772.0913" y2="772.0913"/><polygon fill="#181818" points="184,840.978,188,850.978,192,840.978,188,844.978" style="stroke:#181818;stroke-width:1.0;"/><line style="stroke:#181818;stroke-width:1.0;" x1="188" x2="188" y1="772.0913" y2="914.978"/><line style="stroke:#181818;stroke-width:1.0;" x1="188" x2="144" y1="914.978" y2="914.978"/><line style="stroke:#181818;stroke-width:1.0;" x1="144" x2="144" y1="914.978" y2="934.978"/><polygon fill="#181818" points="140,924.978,144,934.978,148,924.978,144,928.978" style="stroke:#181818;stroke-width:1.0;"/><line style="stroke:#181818;stroke-width:1.0;" x1="144" x2="144" y1="740.0913" y2="760.0913"/><polygon fill="#181818" points="140,750.0913,144,760.0913,148,750.0913,144,754.0913" style="stroke:#181818;stroke-width:1.0;"/><line style="stroke:#181818;stroke-width:1.0;" x1="144" x2="144" y1="968.9468" y2="988.9468"/><polygon fill="#181818" points="140,978.9468,144,988.9468,148,978.9468,144,982.9468" style="stroke:#181818;stroke-width:1.0;"/><line style="stroke:#181818;stroke-width:1.0;" x1="144" x2="144" y1="1022.9155" y2="1077.1191"/><polygon fill="#181818" points="140,1067.1191,144,1077.1191,148,1067.1191,144,1071.1191" style="stroke:#181818;stroke-width:1.0;"/><text fill="#000000" font-family="sans-serif" font-size="11" lengthAdjust="spacing" textLength="334" x="148" y="1044.2202">Read current location at Eep_Pgm_Beep_Melody to Temp3.</text><text fill="#000000" font-family="sans-serif" font-size="11" lengthAdjust="spacing" textLength="278" x="148" y="1057.0249">If the value zero, that means this is a silent note</text><line style="stroke:#181818;stroke-width:1.0;" x1="144" x2="144" y1="1111.0879" y2="1131.0879"/><polygon fill="#181818" points="140,1121.0879,144,1131.0879,148,1121.0879,144,1125.0879" style="stroke:#181818;stroke-width:1.0;"/><line style="stroke:#181818;stroke-width:1.0;" x1="144" x2="144" y1="1165.0566" y2="1185.0566"/><polygon fill="#181818" points="140,1175.0566,144,1185.0566,148,1175.0566,144,1179.0566" style="stroke:#181818;stroke-width:1.0;"/><line style="stroke:#181818;stroke-width:1.0;" x1="191.5" x2="191.5" y1="1306.9941" y2="1326.9941"/><polygon fill="#181818" points="187.5,1316.9941,191.5,1326.9941,195.5,1316.9941,191.5,1320.9941" style="stroke:#181818;stroke-width:1.0;"/><line style="stroke:#181818;stroke-width:1.0;" x1="191.5" x2="191.5" y1="1360.9629" y2="1380.9629"/><polygon fill="#181818" points="187.5,1370.9629,191.5,1380.9629,195.5,1370.9629,191.5,1374.9629" style="stroke:#181818;stroke-width:1.0;"/><line style="stroke:#181818;stroke-width:1.0;" x1="191.5" x2="191.5" y1="1414.9316" y2="1434.9316"/><polygon fill="#181818" points="187.5,1424.9316,191.5,1434.9316,195.5,1424.9316,191.5,1428.9316" style="stroke:#181818;stroke-width:1.0;"/><line style="stroke:#181818;stroke-width:1.0;" x1="115" x2="96.5" y1="1251.0254" y2="1251.0254"/><line style="stroke:#181818;stroke-width:1.0;" x1="96.5" x2="96.5" y1="1251.0254" y2="1273.0254"/><polygon fill="#181818" points="92.5,1263.0254,96.5,1273.0254,100.5,1263.0254,96.5,1267.0254" style="stroke:#181818;stroke-width:1.0;"/><line style="stroke:#181818;stroke-width:1.0;" x1="173" x2="191.5" y1="1251.0254" y2="1251.0254"/><line style="stroke:#181818;stroke-width:1.0;" x1="191.5" x2="191.5" y1="1251.0254" y2="1273.0254"/><polygon fill="#181818" points="187.5,1263.0254,191.5,1273.0254,195.5,1263.0254,191.5,1267.0254" style="stroke:#181818;stroke-width:1.0;"/><line style="stroke:#181818;stroke-width:1.0;" x1="96.5" x2="96.5" y1="1306.9941" y2="1486.9004"/><line style="stroke:#181818;stroke-width:1.0;" x1="96.5" x2="132" y1="1486.9004" y2="1486.9004"/><polygon fill="#181818" points="122,1482.9004,132,1486.9004,122,1490.9004,126,1486.9004" style="stroke:#181818;stroke-width:1.0;"/><line style="stroke:#181818;stroke-width:1.0;" x1="191.5" x2="191.5" y1="1468.9004" y2="1486.9004"/><line style="stroke:#181818;stroke-width:1.0;" x1="191.5" x2="156" y1="1486.9004" y2="1486.9004"/><polygon fill="#181818" points="166,1482.9004,156,1486.9004,166,1490.9004,162,1486.9004" style="stroke:#181818;stroke-width:1.0;"/><line style="stroke:#181818;stroke-width:1.0;" x1="144" x2="144" y1="1219.0254" y2="1239.0254"/><polygon fill="#181818" points="140,1229.0254,144,1239.0254,148,1229.0254,144,1233.0254" style="stroke:#181818;stroke-width:1.0;"/><line style="stroke:#181818;stroke-width:1.0;" x1="144" x2="144" y1="1498.9004" y2="1518.9004"/><polygon fill="#181818" points="140,1508.9004,144,1518.9004,148,1508.9004,144,1512.9004" style="stroke:#181818;stroke-width:1.0;"/><line style="stroke:#181818;stroke-width:1.0;" x1="144" x2="144" y1="1552.8691" y2="1572.8691"/><polygon fill="#181818" points="140,1562.8691,144,1572.8691,148,1562.8691,144,1566.8691" style="stroke:#181818;stroke-width:1.0;"/><line style="stroke:#181818;stroke-width:1.0;" x1="144" x2="144" y1="604.2549" y2="652.1538"/><polygon fill="#181818" points="140,642.1538,144,652.1538,148,642.1538,144,646.1538" style="stroke:#181818;stroke-width:1.0;"/><text fill="#000000" font-family="sans-serif" font-size="11" lengthAdjust="spacing" textLength="453" x="148" y="625.5596">Read current location at Eep_Pgm_Beep_Melody to Temp4 and increment DPTR.</text><text fill="#000000" font-family="sans-serif" font-size="11" lengthAdjust="spacing" textLength="274" x="148" y="638.3643">If the value is 0, no point trying to play this note</text><line style="stroke:#181818;stroke-width:1.0;" x1="189" x2="494" y1="1638.8379" y2="1638.8379"/><polygon fill="#181818" points="490,1143.8496,494,1133.8496,498,1143.8496,494,1139.8496" style="stroke:#181818;stroke-width:1.0;"/><line style="stroke:#181818;stroke-width:1.0;" x1="494" x2="494" y1="592.2549" y2="1638.8379"/><line style="stroke:#181818;stroke-width:1.0;" x1="494" x2="156" y1="592.2549" y2="592.2549"/><polygon fill="#181818" points="166,588.2549,156,592.2549,166,596.2549,162,592.2549" style="stroke:#181818;stroke-width:1.0;"/><line style="stroke:#181818;stroke-width:1.0;" x1="144" x2="144" y1="1606.8379" y2="1626.8379"/><polygon fill="#181818" points="140,1616.8379,144,1626.8379,148,1616.8379,144,1620.8379" style="stroke:#181818;stroke-width:1.0;"/><line style="stroke:#181818;stroke-width:1.0;" x1="144" x2="144" y1="560.2549" y2="580.2549"/><polygon fill="#181818" points="140,570.2549,144,580.2549,148,570.2549,144,574.2549" style="stroke:#181818;stroke-width:1.0;"/><line style="stroke:#181818;stroke-width:1.0;" x1="144" x2="144" y1="447.915" y2="472.3174"/><polygon fill="#181818" points="140,462.3174,144,472.3174,148,462.3174,144,466.3174" style="stroke:#181818;stroke-width:1.0;"/><line style="stroke:#181818;stroke-width:1.0;" x1="173" x2="516" y1="435.915" y2="435.915"/><polygon fill="#181818" points="512,1069.8809,516,1079.8809,520,1069.8809,516,1073.8809" style="stroke:#181818;stroke-width:1.0;"/><line style="stroke:#181818;stroke-width:1.0;" x1="516" x2="516" y1="435.915" y2="1682.8379"/><line style="stroke:#181818;stroke-width:1.0;" x1="516" x2="156" y1="1682.8379" y2="1682.8379"/><polygon fill="#181818" points="166,1678.8379,156,1682.8379,166,1686.8379,162,1682.8379" style="stroke:#181818;stroke-width:1.0;"/><line style="stroke:#181818;stroke-width:1.0;" x1="144" x2="144" y1="1650.8379" y2="1670.8379"/><polygon fill="#181818" points="140,1660.8379,144,1670.8379,148,1660.8379,144,1664.8379" style="stroke:#181818;stroke-width:1.0;"/><line style="stroke:#181818;stroke-width:1.0;" x1="144" x2="144" y1="382.5161" y2="423.915"/><polygon fill="#181818" points="140,413.915,144,423.915,148,413.915,144,417.915" style="stroke:#181818;stroke-width:1.0;"/><text fill="#000000" font-family="sans-serif" font-size="11" lengthAdjust="spacing" textLength="366" x="148" y="403.8208">If first byte is 255, skip startup melody (settings may be invalid)</text><line style="stroke:#181818;stroke-width:1.0;" x1="144" x2="144" y1="1694.8379" y2="1714.8379"/><polygon fill="#181818" points="140,1704.8379,144,1714.8379,148,1704.8379,144,1708.8379" style="stroke:#181818;stroke-width:1.0;"/><line style="stroke:#181818;stroke-width:1.0;" x1="144" x2="144" y1="1748.8066" y2="1768.8066"/><polygon fill="#181818" points="140,1758.8066,144,1768.8066,148,1758.8066,144,1762.8066" style="stroke:#181818;stroke-width:1.0;"/><!--MD5=[1c71452c07e8b0abb60b38af2a613704]
@startuml 
start
->Play beep melody

Plays a beep melody from eeprom storage

A melody has 64 pairs of (item1, item2) - a total of 128 items.
the first 4 values of the 128 items are metadata
item2 - is the duration of each pulse of the musical note, lower the value, higher the pitch
item1 - if item2 is zero, it is the number of milliseconds of wait time, else it is the number of pulses of item2

Requirements: Interrupts must be disabled and FETs turned off;
:DPTR = &Eep_Pgm_Beep_Melody;
:A = 0;
:A = *(A + DPTR);
:A = ~A;
->If first byte is 255, skip startup melody (settings may be invalid);
if (A != 0) then (yes)
  :Temp5 = 62;
  :DPTR = &Eep_Pgm_Beep_Melody + 04h;  
  repeat
    ->Read current location at Eep_Pgm_Beep_Melody to Temp4 and increment DPTR.
    If the value is 0, no point trying to play this note;
    :A = 0;
    :A = *(A + DPTR);
    if (A == 0) then (yes)
      :ret;
      stop
    endif
    :DPTR = DPTR + 1;
    :Temp4 = A;
    ->Read current location at Eep_Pgm_Beep_Melody to Temp3.
    If the value zero, that means this is a silent note;
    :A = 0;
    :A = *(A + DPTR);
    :Temp3 = A;
    if (A != 0) then (yes)
      :beep();
    else (no)
      :A = Temp4;
      :Temp2 = A;
      :Temp3 = 0;
      :wait_ms();
    endif
    :DPTR = DPTR + 1;
    :Temp5 = Temp5 - 1;
  repeat while (Temp5 != 0) is (yes)
endif
:ret;
stop
@enduml

PlantUML version 1.2022.6(Tue Jun 21 17:34:49 UTC 2022)
(GPL source distribution)
Java Runtime: OpenJDK Runtime Environment
JVM: OpenJDK 64-Bit Server VM
Default Encoding: UTF-8
Language: en
Country: null
--></g></svg>