<?xml version="1.0" encoding="UTF-8" standalone="no"?><svg xmlns="http://www.w3.org/2000/svg" xmlns:xlink="http://www.w3.org/1999/xlink" contentStyleType="text/css" height="523px" preserveAspectRatio="none" style="width:670px;height:523px;background:#FFFFFF;" version="1.1" viewBox="0 0 670 523" width="670px" zoomAndPan="magnify"><defs/><g><ellipse cx="292" cy="20" fill="#222222" rx="10" ry="10" style="stroke:#222222;stroke-width:1.0;"/><rect fill="#F1F1F1" height="33.9688" rx="12.5" ry="12.5" style="stroke:#181818;stroke-width:0.5;" width="234" x="175" y="122.6177"/><text fill="#000000" font-family="sans-serif" font-size="12" lengthAdjust="spacing" textLength="214" x="185" y="143.7563">Temp2 = @Pgm_Beacon_Strength</text><rect fill="#F1F1F1" height="33.9688" rx="12.5" ry="12.5" style="stroke:#181818;stroke-width:0.5;" width="179" x="202.5" y="176.5864"/><text fill="#000000" font-family="sans-serif" font-size="12" lengthAdjust="spacing" textLength="159" x="212.5" y="197.7251">Beep_Strength = *Temp2</text><polygon fill="#F1F1F1" points="32,230.5552,104,230.5552,116,242.5552,104,254.5552,32,254.5552,20,242.5552,32,230.5552" style="stroke:#181818;stroke-width:0.5;"/><text fill="#000000" font-family="sans-serif" font-size="11" lengthAdjust="spacing" textLength="20" x="72" y="264.7656">yes</text><text fill="#000000" font-family="sans-serif" font-size="11" lengthAdjust="spacing" textLength="72" x="32" y="246.3633">Temp1 == 1</text><rect fill="#F1F1F1" height="33.9688" rx="12.5" ry="12.5" style="stroke:#181818;stroke-width:0.5;" width="80" x="28" y="287.3599"/><text fill="#000000" font-family="sans-serif" font-size="12" lengthAdjust="spacing" textLength="60" x="38" y="308.4985">beep_f1()</text><polygon fill="#F1F1F1" points="148,230.5552,220,230.5552,232,242.5552,220,254.5552,148,254.5552,136,242.5552,148,230.5552" style="stroke:#181818;stroke-width:0.5;"/><text fill="#000000" font-family="sans-serif" font-size="11" lengthAdjust="spacing" textLength="20" x="188" y="264.7656">yes</text><text fill="#000000" font-family="sans-serif" font-size="11" lengthAdjust="spacing" textLength="72" x="148" y="246.3633">Temp1 == 2</text><rect fill="#F1F1F1" height="33.9688" rx="12.5" ry="12.5" style="stroke:#181818;stroke-width:0.5;" width="80" x="144" y="287.3599"/><text fill="#000000" font-family="sans-serif" font-size="12" lengthAdjust="spacing" textLength="60" x="154" y="308.4985">beep_f2()</text><polygon fill="#F1F1F1" points="264,230.5552,336,230.5552,348,242.5552,336,254.5552,264,254.5552,252,242.5552,264,230.5552" style="stroke:#181818;stroke-width:0.5;"/><text fill="#000000" font-family="sans-serif" font-size="11" lengthAdjust="spacing" textLength="20" x="304" y="264.7656">yes</text><text fill="#000000" font-family="sans-serif" font-size="11" lengthAdjust="spacing" textLength="72" x="264" y="246.3633">Temp1 == 3</text><rect fill="#F1F1F1" height="33.9688" rx="12.5" ry="12.5" style="stroke:#181818;stroke-width:0.5;" width="80" x="260" y="287.3599"/><text fill="#000000" font-family="sans-serif" font-size="12" lengthAdjust="spacing" textLength="60" x="270" y="308.4985">beep_f3()</text><polygon fill="#F1F1F1" points="380,230.5552,452,230.5552,464,242.5552,452,254.5552,380,254.5552,368,242.5552,380,230.5552" style="stroke:#181818;stroke-width:0.5;"/><text fill="#000000" font-family="sans-serif" font-size="11" lengthAdjust="spacing" textLength="20" x="420" y="264.7656">yes</text><text fill="#000000" font-family="sans-serif" font-size="11" lengthAdjust="spacing" textLength="72" x="380" y="246.3633">Temp1 == 4</text><rect fill="#F1F1F1" height="33.9688" rx="12.5" ry="12.5" style="stroke:#181818;stroke-width:0.5;" width="80" x="376" y="287.3599"/><text fill="#000000" font-family="sans-serif" font-size="12" lengthAdjust="spacing" textLength="60" x="386" y="308.4985">beep_f4()</text><rect fill="#F1F1F1" height="33.9688" rx="12.5" ry="12.5" style="stroke:#181818;stroke-width:0.5;" width="80" x="484" y="283.9575"/><text fill="#000000" font-family="sans-serif" font-size="12" lengthAdjust="spacing" textLength="60" x="494" y="305.0962">beep_f5()</text><rect fill="#F1F1F1" height="33.9688" rx="12.5" ry="12.5" style="stroke:#181818;stroke-width:0.5;" width="234" x="175" y="382.7275"/><text fill="#000000" font-family="sans-serif" font-size="12" lengthAdjust="spacing" textLength="214" x="185" y="403.8662">Temp2 = @Pgm_Beacon_Strength</text><rect fill="#F1F1F1" height="33.9688" rx="12.5" ry="12.5" style="stroke:#181818;stroke-width:0.5;" width="179" x="202.5" y="436.6963"/><text fill="#000000" font-family="sans-serif" font-size="12" lengthAdjust="spacing" textLength="159" x="212.5" y="457.835">Beep_Strength = *Temp2</text><ellipse cx="292" cy="501.665" rx="11" ry="11" style="stroke:#222222;stroke-width:1.0;fill:none;"/><ellipse cx="292" cy="501.665" fill="#222222" rx="6" ry="6" style="stroke:#111111;stroke-width:1.0;"/><line style="stroke:#181818;stroke-width:1.0;" x1="292" x2="292" y1="30" y2="122.6177"/><polygon fill="#181818" points="288,112.6177,292,122.6177,296,112.6177,292,116.6177" style="stroke:#181818;stroke-width:1.0;"/><text fill="#000000" font-family="sans-serif" font-size="11" lengthAdjust="spacing" textLength="74" x="296" y="51.3047">Beacon beep</text><text fill="#000000" font-family="sans-serif" font-size="11" lengthAdjust="spacing" textLength="153" x="296" y="64.1094">Beep with beacon strength</text><text fill="#000000" font-family="sans-serif" font-size="11" lengthAdjust="spacing" textLength="137" x="296" y="76.9141">Beep tone 1-5 in Temp1</text><text fill="#000000" font-family="sans-serif" font-size="11" lengthAdjust="spacing" textLength="362" x="296" y="89.7188">Requirements: Interrupts must be disabled and FETs turned off</text><text fill="#000000" font-family="sans-serif" font-size="11" lengthAdjust="spacing" textLength="148" x="296" y="102.5234">Set beacon beep strength</text><line style="stroke:#181818;stroke-width:1.0;" x1="292" x2="292" y1="156.5864" y2="176.5864"/><polygon fill="#181818" points="288,166.5864,292,176.5864,296,166.5864,292,170.5864" style="stroke:#181818;stroke-width:1.0;"/><line style="stroke:#181818;stroke-width:1.0;" x1="68" x2="68" y1="254.5552" y2="287.3599"/><polygon fill="#181818" points="64,277.3599,68,287.3599,72,277.3599,68,281.3599" style="stroke:#181818;stroke-width:1.0;"/><line style="stroke:#181818;stroke-width:1.0;" x1="68" x2="68" y1="321.3286" y2="341.3286"/><polygon fill="#181818" points="64,331.3286,68,341.3286,72,331.3286,68,335.3286" style="stroke:#181818;stroke-width:1.0;"/><line style="stroke:#181818;stroke-width:1.0;" x1="184" x2="184" y1="254.5552" y2="287.3599"/><polygon fill="#181818" points="180,277.3599,184,287.3599,188,277.3599,184,281.3599" style="stroke:#181818;stroke-width:1.0;"/><line style="stroke:#181818;stroke-width:1.0;" x1="184" x2="184" y1="321.3286" y2="341.3286"/><polygon fill="#181818" points="180,331.3286,184,341.3286,188,331.3286,184,335.3286" style="stroke:#181818;stroke-width:1.0;"/><line style="stroke:#181818;stroke-width:1.0;" x1="300" x2="300" y1="254.5552" y2="287.3599"/><polygon fill="#181818" points="296,277.3599,300,287.3599,304,277.3599,300,281.3599" style="stroke:#181818;stroke-width:1.0;"/><line style="stroke:#181818;stroke-width:1.0;" x1="300" x2="300" y1="321.3286" y2="341.3286"/><polygon fill="#181818" points="296,331.3286,300,341.3286,304,331.3286,300,335.3286" style="stroke:#181818;stroke-width:1.0;"/><line style="stroke:#181818;stroke-width:1.0;" x1="416" x2="416" y1="254.5552" y2="287.3599"/><polygon fill="#181818" points="412,277.3599,416,287.3599,420,277.3599,416,281.3599" style="stroke:#181818;stroke-width:1.0;"/><line style="stroke:#181818;stroke-width:1.0;" x1="416" x2="416" y1="321.3286" y2="341.3286"/><polygon fill="#181818" points="412,331.3286,416,341.3286,420,331.3286,416,335.3286" style="stroke:#181818;stroke-width:1.0;"/><line style="stroke:#181818;stroke-width:1.0;" x1="116" x2="136" y1="242.5552" y2="242.5552"/><polygon fill="#181818" points="126,238.5552,136,242.5552,126,246.5552,130,242.5552" style="stroke:#181818;stroke-width:1.0;"/><line style="stroke:#181818;stroke-width:1.0;" x1="232" x2="252" y1="242.5552" y2="242.5552"/><polygon fill="#181818" points="242,238.5552,252,242.5552,242,246.5552,246,242.5552" style="stroke:#181818;stroke-width:1.0;"/><line style="stroke:#181818;stroke-width:1.0;" x1="348" x2="368" y1="242.5552" y2="242.5552"/><polygon fill="#181818" points="358,238.5552,368,242.5552,358,246.5552,362,242.5552" style="stroke:#181818;stroke-width:1.0;"/><line style="stroke:#181818;stroke-width:1.0;" x1="292" x2="292" y1="210.5552" y2="215.5552"/><line style="stroke:#181818;stroke-width:1.0;" x1="292" x2="68" y1="215.5552" y2="215.5552"/><line style="stroke:#181818;stroke-width:1.0;" x1="68" x2="68" y1="215.5552" y2="230.5552"/><polygon fill="#181818" points="64,220.5552,68,230.5552,72,220.5552,68,224.5552" style="stroke:#181818;stroke-width:1.0;"/><line style="stroke:#181818;stroke-width:1.0;" x1="464" x2="524" y1="242.5552" y2="242.5552"/><line style="stroke:#181818;stroke-width:1.0;" x1="524" x2="524" y1="242.5552" y2="283.9575"/><polygon fill="#181818" points="520,273.9575,524,283.9575,528,273.9575,524,277.9575" style="stroke:#181818;stroke-width:1.0;"/><line style="stroke:#181818;stroke-width:1.0;" x1="524" x2="524" y1="317.9263" y2="341.3286"/><polygon fill="#181818" points="520,331.3286,524,341.3286,528,331.3286,524,335.3286" style="stroke:#181818;stroke-width:1.0;"/><line style="stroke:#181818;stroke-width:1.0;" x1="68" x2="524" y1="341.3286" y2="341.3286"/><line style="stroke:#181818;stroke-width:1.0;" x1="292" x2="292" y1="341.3286" y2="382.7275"/><polygon fill="#181818" points="288,372.7275,292,382.7275,296,372.7275,292,376.7275" style="stroke:#181818;stroke-width:1.0;"/><text fill="#000000" font-family="sans-serif" font-size="11" lengthAdjust="spacing" textLength="147" x="296" y="362.6333">Set normal beep strength</text><line style="stroke:#181818;stroke-width:1.0;" x1="292" x2="292" y1="416.6963" y2="436.6963"/><polygon fill="#181818" points="288,426.6963,292,436.6963,296,426.6963,292,430.6963" style="stroke:#181818;stroke-width:1.0;"/><line style="stroke:#181818;stroke-width:1.0;" x1="292" x2="292" y1="470.665" y2="490.665"/><polygon fill="#181818" points="288,480.665,292,490.665,296,480.665,292,484.665" style="stroke:#181818;stroke-width:1.0;"/><!--MD5=[a558a382bf451080cd8527c34fda0e61]
@startuml
start
->Beacon beep
Beep with beacon strength
Beep tone 1-5 in Temp1
Requirements: Interrupts must be disabled and FETs turned off
Set beacon beep strength;
:Temp2 = @Pgm_Beacon_Strength;
:Beep_Strength = *Temp2;
if (Temp1 == 1) then (yes)
  :beep_f1();
else if (Temp1 == 2) then (yes)
  :beep_f2();
else if (Temp1 == 3) then (yes)
  :beep_f3();
else if (Temp1 == 4) then (yes)
  :beep_f4();
else
  :beep_f5();
endif
->Set normal beep strength;
:Temp2 = @Pgm_Beacon_Strength;
:Beep_Strength = *Temp2;
stop
@enduml

PlantUML version 1.2022.6(Tue Jun 21 17:34:49 UTC 2022)
(GPL source distribution)
Java Runtime: OpenJDK Runtime Environment
JVM: OpenJDK 64-Bit Server VM
Default Encoding: UTF-8
Language: en
Country: null
--></g></svg>